<?xml version="1.0" encoding="UTF-8"?>
<svg version="1.1" viewBox="0 0 1744 884" width="436" height="221" xmlns="http://www.w3.org/2000/svg">
<path transform="translate(489,43)" d="m0 0h9l1 1-1 9-18 36-11 24-7 15-2 6 16-10 21-12 25-13 17-9 19-8 24-9 31-10 29-6 19-2h28l22 3 22 7 15 8 13 12 5 5 8 10 9 16 6 15 5 21 1 7v28l-4 24-8 26-10 21-12 20-12 16-11 12-7 8-10 10-8 7-14 12-15 11-19 12-26 15-16 9-26 12-42 16-36 12-45 12-36 8-45 8-27 4-10 1 1 1 37 6 25 6 24 8 17 7 19 10 20 12 17 13 11 9 10 9 21 21 9 11 13 16 14 19 13 18 14 19 10 14 13 17 13 16 11 14 12 13 16 16 15 10 10 5 12 3h15l13-5 10-7 2 1-1 30-3 22-6 21-8 16-9 10-14 7-8 2h-22l-12-2-21-8-15-8-13-10-13-12-12-12-9-11-11-14-14-21-13-21-15-26-16-28-13-22-18-27-11-14-12-14-16-17-12-13-14-13-14-11-18-13-15-10-28-14-21-8-19-6-20-4-30-3h-28l-30 3-36 7-7 2h-5v-16l4-14 6-10 7-8 9-5 13-4 41-6 41-7 53-11 36-9 44-14 41-16 25-12 27-14 21-14 17-13 13-11 24-24 9-11 11-14 11-17 8-16 6-14 5-18 2-13v-16l-3-15-7-14-9-10-10-6-13-5-6-1h-20l-23 5-20 7-23 11-21 13-20 14-18 13-14 10-8 6-9 21-9 24-10 29-11 34-12 42-7 28-3 15-7 3-62 14-10 2h-5l5-21 12-39 16-47 17-45 14-35 13-31 13-30 7-16 7-15 16-34 8-18 10-18 8-7 11-5z"/>
<path transform="translate(263,510)" d="m0 0 15 1 23 4 23 6 16 6 9 5 1 4-2 29-1 28v58l2 44 4 43 7 52 6 33v6l-9-1-21-5-13-5-19-10-11-9-10-10-7-10-8-14-7-16-7-24-5-28-2-22v-30l2-34 5-46 5-34z"/>
<path transform="translate(399,70)" d="m0 0 1 4-8 18-6 3-36 9-29 10-20 9-21 10-22 14-19 14-13 11-15 14-11 11-7 8-10 12-10 13-8 12-9 15-8 14-11 24-9 25-8 30-5 30-2 19v42l3 29 5 27 7 25 10 28 12 25 11 20 14 21 10 13 11 13 9 10 10 10 8 7 7 7 2 5 1 12v10l-5-1-28-24-17-17-9-11-9-10-14-19-12-20-10-18-10-21-9-23-8-27-6-27-4-29-1-13v-47l3-26 4-23 6-24 10-30 11-24 8-16 10-18 8-12 12-16 11-14 9-10 7-8 15-15 11-9 15-12 18-13 20-12 22-12 18-8 25-9 44-11z" fill="#FEDD64"/>
<path transform="translate(1410,399)" d="m0 0h64l20 3 13 5 11 7 8 9 4 8 1 4v16l-4 10-9 10-13 8-15 5 7 10 10 16 4 3 6-1 8-5 6-1 8 3 7 8 2 6v12l-4 8-8 7-5 2-8 1-11-2-10-5-8-8-8-15-11-29-5-7-7-1v21l2 16 3 10 8 14v2h-66l-1-2 8-13 3-9 2-11 1-13v-51l-2-20-4-15-8-12zm57 13-3 6-2 13v42l1 1h7l9-5 5-6 4-11v-21l-3-10-4-6-5-3z" fill="#FFDD64"/>
<path transform="translate(1268,398)" d="m0 0h32l15 4 14 7 10 8 8 10 8 17 4 18v25l-3 15-5 13-6 10-9 10-8 6-13 6-15 4-6 1h-21l-16-3-15-6-9-6-10-10-8-13-5-14-2-9-1-11v-11l2-16 5-15 8-14 10-11 11-7 12-5zm11 11-8 3-6 5-8 13-5 16-2 19v17l2 21 5 17 7 11 6 5 7 3h13l10-5 7-9 5-12 3-14 1-7v-34l-3-17-5-14-8-11-5-4-8-3z" fill="#FFDD64"/>
<path transform="translate(907,398)" d="m0 0h27l9 2 12 6 5 5 6 8 1 3v8l-4 6-6 5-4 1h-10l-7-3-5-6-1-2v-9l1-9v-2l-11-1-6 3-4 5-3 7v9l4 8 6 7 28 22 12 11 8 9 6 11 1 4v12l-3 8-7 10-10 7-11 5-17 4h-23l-15-3-12-5-8-6-6-12v-11l4-8 6-5 5-2h10l9 3 6 7 2 5 2 16 2 5 4 2h10l6-4 2-3 1-6-3-9-4-6-12-12-13-10-11-10-8-7-8-10-6-12-1-4v-16l4-9 6-8 10-7 14-5z" fill="#FFDD64"/>
<path transform="translate(1599,399)" d="m0 0h111l9 3 8 7 3 6v10l-6 9-7 5-6 2h-8l-8-6-9-11-8-7-11-4-10-1-3 6-2 17-1 35 23-1 9-3 9-9 4 1v35l-5-1-7-6-5-3-7-1-19-1-2-1 1 35 2 15 1 7 32-1 15-4 10-5 6-5 6-9 6-1 2 3v31l-3 3-120 1-11-1 1-5 7-11 3-9 2-13v-72l-2-14-4-11-7-10z" fill="#FFDD64"/>
<path transform="translate(771,293)" d="m0 0h2l6 16 8 29 5 24 3 19 2 31v22l-2 29-5 30-6 25-11 33-10 23-8 16-6 11-16 24-12 16-11 13-1 2h-2l-2 4-20 20h-2v2l-8 8-4-2-9-12 1-5 10-9 7-7 7-8 9-10 11-14 13-18 11-18 8-14 13-29 8-22 7-26 5-27 3-26v-38l-4-36-6-29-7-25 1-6z" fill="#FFDD64"/>
<path transform="translate(1028,399)" d="m0 0h127l3 3v31h-4l-9-11-6-5-11-4-13-1-3 7-2 25v58l2 20 4 11 8 13v3l-2 1h-56l-9-1 1-5 6-9 4-13 2-15v-67l-1-16-3-12h-8l-14 4-6 4-7 7-6 8-3-1-1-6v-21l3-6z" fill="#FFDD64"/>
<path transform="translate(548,737)" d="m0 0 4 1 9 14v3l-11 4-21 6-25 5-30 4-11 1h-37l-35-3-14-3-3-2-2-8-1-12 10 1 32 4 14 1h31l31-3 19-3z" fill="#FFDD64"/>
<path transform="translate(298,423)" d="m0 0h2v2h-2z"/>
</svg>
