<?xml version="1.0" encoding="UTF-8"?>
<svg version="1.1" viewBox="0 0 1600 366" width="436" height="100" xmlns="http://www.w3.org/2000/svg">
<path transform="translate(128,14)" d="m0 0h14l10 3 9 5 8 8 6 10 4 10 5 18v3l30-9 25-10 5 1 6 34 5 32 1 8h5l-8-55-2-17 11 3 18 8 13 7 2 6 4 39 2 8 15 5 13 4 14 3 27 2v4l-11 7-13 5-4 1-16 1v2l11 3 25 3 32 1 17 4 14 6 9 7 8 9 7 15 1 8-4 1-6-4-11-9-16-8-14-4h-10l-12 6-20 12-20 11-20 8-14 2-15-3-13-7-13-8-11-5-18-6-7-4v-2l10-3h28l37 4h25l16-4 6-3v-2l-31-4-34-6-11-1h-15l-15 2-12 5-10 6-7 9-5 10-3 11v19l4 14 8 14 7 8 14 9 13 5 10 2h14l-20-9-13-9-13-13-8-14-4-12v-12l6 2 12 10 12 6 25 8 16 5 10 5 10 9 8 9 7 11 10 18 8 12 10 12 11 8 15 7 7 2 20 1 6 2 1 4-6 5-12 4-6 1h-12l-14-3-15-6-13-7-14-8-9-4-1 1 10 12 2 6v4l-6-1-11-5-21-6-31-8-20-6-12-6-13-11-4 1-41 14-28 10-22 7-6 1-3-4-12-34-23-68-13-40-24-72v-3l29-11 25-9 7-1 4 15 2 13 8-1-1-9-6-20-6 1-4-4-6-21-1-11 2-13 4-11 6-10 7-8 11-8 10-4zm2 12-10 3-9 6-5 5-6 8-4 10-1 5v11l5 26 1 2 11-3 26-9 36-13-3-12-6-18-6-9-5-5-8-5-8-2zm50 49-5 1 4 20 3 8 6-1 1-1v-8l-5-18z" fill="#FC630A"/>
<path transform="translate(298,124)" d="m0 0h2l1 2 15 5 13 4 14 3 27 2v4l-11 7-13 5-4 1-16 1v2l11 3 25 3 32 1 17 4 14 6 9 7 8 9 7 15 1 8-4 1-6-4-11-9-16-8-14-4h-10l-12 6-20 12-20 11-20 8-14 2-15-3-13-7-13-8-11-5-18-6-7-4v-2l10-3h28l37 4h25l16-4 6-3v-2l-31-4-34-6-11-1h-15l-15 2-12 5-10 6-7 9-5 10-3 11v19l4 14 8 14 7 8 14 9 13 5 10 2h14l-20-9-13-9-13-13-8-14-4-12v-12l6 2 12 10 12 6 25 8 16 5 10 5 10 9 8 9 7 11 10 18 8 12 10 12 11 8 15 7 7 2 20 1 6 2 1 4-6 5-12 4-6 1h-12l-14-3-15-6-13-7-14-8-9-4-1 1 10 12 2 6v4l-6-1-11-5-21-6-31-8-20-6-12-6-13-11-4 1-41 14-28 10-9 2 2-2 15-7 8-3 15-7 7-3 13-3 16-6 5-1v-2l7-3 2-4 1-11-6-11-3-8 2-2-6-13-4-16v-21l2-9 9-14 13-14 11-7 15-5 12-2v-1l16-1 11-2 4-1 1-5v-15l3-6 1-5 4-1h-2z" fill="#F8AC56"/>
<path transform="translate(1136,110)" d="m0 0h11l14 2 15 6 11 7 10 9 9 13 6 13 3 14v20l-4 16-8 16-6 8-6 7-13 9-10 5-14 4h-26l-16-5-11-6-9-7-9-9-8-13-6-15-2-8v-22l4-14 8-16 8-10 9-9 11-7 11-5 8-2zm1 36-10 3-9 6-7 8-5 12-1 4v13l4 11 6 9 7 6 9 4 4 1h13l12-5 10-9 5-8 2-8v-16l-3-10-6-8-8-7-11-5-5-1z" fill="#F8AC57"/>
<path transform="translate(1270,111)" d="m0 0h70l11 4 9 6 8 8 7 12 3 9 1 13-3 15-7 13-9 10 1 6 11 20 9 16 3 9-1 1-7 1h-30l-7-8-14-25-6-9-2-1h-11l-1 41-2 1-19 1h-13l-3-3-1-85v-48l2-6zm47 33-12 1v31l1 1h20l9-3 6-7 2-5-2-9-6-7-2-1z" fill="#F8AC57"/>
<path transform="translate(516,111)" d="m0 0h58l12 2 11 6 8 7 7 10 4 10 1 4v21l-3 11-6 10-10 10 9 17 13 22 4 9v3l-2 1h-34l-5-3-6-9-14-25-3-4v-2h-14l-1 42h-36l-1-1v-140zm29 34v31l6 1h18l7-3 6-7 1-3v-8l-6-9-4-2z" fill="#F8AC57"/>
<path transform="translate(1435,110)" d="m0 0h41l42 1 5 1v32l-39 1h-15l1 20 46 1 1 1v31l-14 1h-34l1 21h37l17 1v31l-1 1-38 1h-49l-3-1-1-2-1-37v-101z" fill="#F8AC57"/>
<path transform="translate(815,111)" d="m0 0h25l10 3 11 6 11 10 6 10-1 5-27 16-4-1-4-6-7-6-2-1h-10l-5 4v6l4 4 12 5 15 5 15 8 10 9 6 10 3 9v17l-5 12-6 8-10 8-12 5-10 2h-21l-13-3-12-6-10-9-6-7-3-7 1-4 8-6 18-10 4 2 7 8 9 6 10 2 8-4 5-6-1-5-8-5-13-5-15-5-12-7-9-9-6-12-1-5v-16l3-10 6-10 7-7 14-7z" fill="#F8AC57"/>
<path transform="translate(217,222)" d="m0 0 6 2 12 10 12 6 25 8 16 5 10 5 10 9 8 9 7 11 10 18 8 12 10 12 11 8 15 7 7 2 20 1 6 2 1 4-6 5-12 4-6 1h-12l-14-3-15-6-13-7-14-8-9-4-1 1 10 12 2 6v4l-6-1-11-5-21-6-18-5-1-3-13-3-2-2h8l10 2h6l-1-2-7-3-5-3-2-2 3-4 3-20 10-4-9-3v-1l10-2-20-9-13-9-13-13-8-14-4-12z" fill="#FEB732"/>
<path transform="translate(375,220)" d="m0 0h12l16 5 11 6 11 9 2 4h-32l3 7 8 9 10 7 5 2 6 1 29 2 17 4 10 5 7 8 5 10v5l-4 1-14-6h-10l-20 6-25 8-25 6-13 1-12-2-12-6-10-9-8-7-10-11-7-11v-4l8 1 12 6 11 3h31l6 1-4-8-9-10-11-7-13-5-12-3-10-2-1-3 5-6 13-8 12-6z" fill="#FEDA46"/>
<path transform="translate(923,111)" d="m0 0h107v32l-1 1-35 1v107l-1 1-18 1-16-1-2-3-1-105h-29l-5-1v-31z" fill="#F8AC57"/>
<path transform="translate(251,55)" d="m0 0 11 3 18 8 13 7 2 6 4 39v13h2l-1 2-3-1v5l-3 7v14l-2 5-9 3-18 2v1l-16 2-15 5-11 7-13 14-8 13-2 9v21l4 16 6 13-2 3 9 18-1 11-3 5-7 2 1 3-9 2-13 5-15 4-10 4-14 7-13 5-6 3h-2v2l-17 5-4-2-9-24 1-3 5 10 3 8h2l2-3 3 5h8l30-12 10-6 6-4h2v-2l4 1v-2l17-1 8-4h2l-1-14-2-19 1-17v-12l-1-9 1-22 3-8 7-12 3-6 7-10 6-5 13-7 3-1 2-4 3-5 4-11-1-4v-10l4-16 3-6h1l2 16h5l-8-55z" fill="#FB8620"/>
<path transform="translate(329,162)" d="m0 0 22 3 11 1 32 1 17 4 14 6 9 7 8 9 7 15 1 8-4 1-6-4-11-9-16-8-14-4h-10l-12 6-20 12-20 11-20 8-14 2-15-3-13-7-13-8-11-5-18-6-7-4v-2l10-3h28l37 4h25l16-4 6-3v-2l-25-3-6-3v-2l5-1 7 3 3 1 18 1-1-8 1-2h2v-3l-19-3-4-4z" fill="#FEB733"/>
<path transform="translate(310,279)" d="m0 0 5 2 3 2h3l9 17 11 17 10 12 11 8 15 7 7 2 20 1 6 2 1 4-6 5-12 4-6 1h-12l-14-3-15-6-13-7-14-8-9-4-1 1 10 12 2 6v4l-6-1-11-5-13-4-1-2h5l-5-3-5-2v-2l10-4 9-6 12-2 4-1 1-6v-9l-5-16-5-13z" fill="#FEDA46"/>
<path transform="translate(402,257)" d="m0 0 8 6 8 5 9 2 29 2 17 4 10 5 7 8 5 10v5l-4 1-14-6h-10l-20 6-25 8-25 6-13 1-2-2 8-1 7-5 21-6-18-2-5-2v-2l-2-2 3-7 5-12 1-2h2v-2h10l11 1h7l4 2 19 3 5 3 1 4h3l-3-5-5-3-12-3-7-4-5 1h-13l-12-6-5-9z" fill="#FFF649"/>
<path transform="translate(251,55)" d="m0 0 11 3 18 8 13 7 2 6 4 39v6l-2 2h-2l-1 3-12 2h-13l-8-4-8-55z" fill="#FC640B"/>
<path transform="translate(217,222)" d="m0 0 6 2 12 10 12 6 25 8 16 5 10 5 10 9 4 4-1 2-3-1v-2l-7-1-9-10-6-1 13 10 2 3-5-2-6-5-4-2-6-1 1 2v16l-1 3 3 3 1 7-3 3-2-1 1-5-2-3h-4l1 4-9-3-16-8-10-8-11-11-8-14-4-12z" fill="#F8AC56"/>
<path transform="translate(128,14)" d="m0 0h14l10 3 9 5 8 8 6 10 4 10 5 18v3l-5 2h-7l-6-21-6-12-3-3v-2l-14-7-5-1h-8l-10 3-9 6-5 5-6 9-4 13v11l5 28 8-3 3 1-10 5-2 2-1-3-6 1-4-4-6-21-1-11 2-13 4-11 6-10 7-8 11-8 10-4z" fill="#E8663B"/>
<path transform="translate(236,193)" d="m0 0h28l37 4 2 2 1 3 11 3 8 2 3 1v6l-9 6-15 5 21-3 12-3 12-6 3-4 12-3-3 3-22 12-20 8-14 2-15-3-13-7-13-8-11-5-18-6-7-4v-2z" fill="#F8AC56"/>
<path transform="translate(283,257)" d="m0 0h7l5 4 6 7 7 2v2l5 1 6 7-1 4-8-5 4 8 5 14 3 10v9l-2 6-4 2-12 2-10 7-9 2v2l9 3 2 3h-9l-20-5-2-1-1-3-13-3-2-2h8l10 2h6l6-4 4-2 3-3 2-5 4-2 1-3 5-5 2-8-1-3 1-5v-20l-1-4v-2l-13-10z" fill="#FFC12B"/>
<path transform="translate(399,168)" d="m0 0 15 4 14 7 10 9 6 9 5 11 1 8-4 1-6-4-11-9-16-8-14-4h-10l-5 1v-1h-9v2l-8 5-4 3-3-1 2-4 14-9 5-5 2-4v-2l-8-3 2-3 20-1z" fill="#FEDA46"/>
<path transform="translate(672,193)" d="m0 0h51l1 1v25l-2 2h-49l-1-1z" fill="#F8AC57"/>
<path transform="translate(295,125)" d="m0 0 3 1 1 5h2l-1 2-3-1v5l-3 7v14l-2 5-9 3-6 1-26 1 5-4 4-2 6-10v-10l-4-1-1-7h21l11-5z" fill="#FF8F1A"/>
<path transform="translate(110,20)" d="m0 0 2 1-2 2-1 5 2 4 2 2-5 4-7 10-4 10-1 5v11l5 28 8-3 3 1-10 5-2 2-1-3-6 1-4-4-6-21-1-11 2-13 4-11 6-10 7-8z" fill="#E67444"/>
<path transform="translate(329,162)" d="m0 0 22 3 11 1 32 1 5 1-2 3-20 1-1 1 8 4-1 5-5 4-5 5-11 7-6 2-4-1-2 4-6 2-3-1 1-3 3-2 7-1 1-9-3-4-1-9 1-2h2v-3l-19-3-4-4z" fill="#FFC02B"/>
<path transform="translate(360,337)" d="m0 0 6 2 11 5 7 2 20 1 6 2 1 4-6 5-12 4-6 1h-12l-14-3-15-6-6-3 1-2 9 3 12-1 4-1-3-10z" fill="#FFF549"/>
<path transform="translate(35,139)" d="m0 0 1 2h2l10 25 2 7 2 3 3 10 4 10 5 13 5 15 4 10 4 12 2 8 4 9 6 28 1 5 1 11-2-3-21-62-13-40-20-60z" fill="#E77745"/>
<path transform="translate(175,14)" d="m0 0h10l12 3 10 6 6 5 7 10 4 11-7 5-4-2-8-13-8-7-9-4-14-2-7-5-1-4 3-2z" fill="#E67444"/>
<path transform="translate(142,35)" d="m0 0 7 1 1 5-6 12-2 8-1 19-4 2h-6l-2-3v-13l3-16 5-10z" fill="#E77645"/>
<path transform="translate(167,29)" d="m0 0 5 5 6 13 6 21v3l-5 2h-7l-6-21-6-12-3-4 9-2z" fill="#E67444"/>
<path transform="translate(202,265)" d="m0 0 5 5 10 20-1 11-3 5-5 2-8-1 1-3h2v-15l-1-16-1-5z" fill="#FF8F1A"/>
<path transform="translate(35,139)" d="m0 0 1 2h2l10 25 2 7 2 3 3 10 4 10 5 13 4 12-1 3-5-2-14-40-13-40z" fill="#E9683C"/>
<path transform="translate(329,162)" d="m0 0 22 3 11 1 32 1 5 1-2 3-20 1-1 1h-7l-9-2-5-1-1 2-10-2-11-2-4-4z" fill="#FEB736"/>
<path transform="translate(269,62)" d="m0 0 5 1 19 10 2 6 3 30v9h-4l-3-12-1-19-2-10-9-7-5-3v-2l-5-2z" fill="#E77745"/>
<path transform="translate(249,333)" d="m0 0h8l10 2h8l12 3-2 1v2l9 3 2 3h-9l-20-5-2-1-1-3-13-3z" fill="#FEB734"/>
<path transform="translate(175,14)" d="m0 0h10l7 2-1 4-8 5-9 1-7-5-1-4 3-2z" fill="#E9683C"/>
<path transform="translate(390,347)" d="m0 0h14l6 2 1 4-6 5-7 2-5-8v-4z" fill="#FEDA46"/>
<path transform="translate(283,257)" d="m0 0h7l5 4 6 7 7 2v2l5 1 6 7-1 4-6-4-7-3-7-9-12-9z" fill="#FEB733"/>
<path transform="translate(269,62)" d="m0 0 5 1 13 7 5 9 1 5v25l-2-3-1-19-2-10-9-7-5-3v-2l-5-2z" fill="#E8653B"/>
<path transform="translate(325,270)" d="m0 0 8 1 6 3-2 2-9 3-3-5z" fill="#F8AF55"/>
<path transform="translate(446,204)" d="m0 0 2 1 2 7-1 5-5-1-2-1 1-5z" fill="#F9B454"/>
<path transform="translate(95,319)" d="m0 0 2 2 4 8 5 14v3l3 1h-4l-4-8-6-17z" fill="#F8AC57"/>
<path transform="translate(319,179)" d="m0 0 5 1 8 3 3 1v2l-12-1-6-3v-2z" fill="#FEB637"/>
<path transform="translate(109,99)" d="m0 0 3 1-10 5-2 2-1-3-6 1-1-3 9-2v2z" fill="#EB7441"/>
<path transform="translate(420,240)" d="m0 0h5l2 4h-14v-3z" fill="#F8AF55"/>
<path transform="translate(350,174)" d="m0 0h3v2h2v5l-5 1-1-6z" fill="#FFB832"/>
<path transform="translate(68,224)" d="m0 0 2 1 6 18-1 3-5-11z" fill="#E8623A"/>
<path transform="translate(207,64)" d="m0 0 2 1-4 4h-10l3-2z" fill="#EA8048"/>
<path transform="translate(182,71)" d="m0 0m-9 1h6l4 3-9 2z" fill="#FB751D"/>
<path transform="translate(295,125)" d="m0 0 3 1 1 5h2l-1 2-5-3-1-4z" fill="#FC8620"/>
</svg>
