<?xml version="1.0" encoding="UTF-8"?>
<svg version="1.1" xmlns="http://www.w3.org/2000/svg" width="292" height="67">
<path d="M0 0 C2.21793005 1.25010603 3.5454316 2.5234753 5.2421875 4.40234375 C8.23431357 7.12185389 11.95016684 8.01388221 15.7421875 9.23828125 C18 10 18 10 19 11 C19.23192865 12.51469448 19.41215238 14.03754562 19.5625 15.5625 C19.64628906 16.38878906 19.73007812 17.21507813 19.81640625 18.06640625 C19.87699219 18.70449219 19.93757813 19.34257812 20 20 C24.32059823 21.09845718 28.61667943 22.17812739 33 23 C32 26 32 26 30 27 C30.66386719 27.03738281 31.32773438 27.07476563 32.01171875 27.11328125 C41.04401038 27.78575844 41.04401038 27.78575844 45 31 C47 34 47 34 46.625 36.6875 C46.41875 37.450625 46.2125 38.21375 46 39 C45.01 39 44.02 39 43 39 C42.34 38.01 41.68 37.02 41 36 C38.07665027 35.08221709 38.07665027 35.08221709 35 35 C34.01 35.66 33.02 36.32 32 37 C32.886875 37.103125 33.77375 37.20625 34.6875 37.3125 C38.10101256 38.02096487 40.23923528 38.88882698 43 41 C43 41.99 43 42.98 43 44 C41.515 44.495 41.515 44.495 40 45 C42.26042571 46.13021285 43.92910996 46.26934344 46.4375 46.5 C49.21487706 46.75623248 51.32662467 47.10887489 54 48 C54.495 50.97 54.495 50.97 55 54 C52.0154021 54.99486597 49.22665912 55.32858555 46.11328125 55.67578125 C43.7243436 55.98711871 43.7243436 55.98711871 40.4375 57.125 C36.00176665 58.25409576 32.13671215 58.06835608 28 56 C30.34591852 58.7710688 32.14776201 59.52059284 35.6875 60.1875 C36.89986328 60.42533203 36.89986328 60.42533203 38.13671875 60.66796875 C38.75160156 60.77753906 39.36648437 60.88710938 40 61 C39.67 62.32 39.34 63.64 39 65 C33.46446021 65.19347518 29.13613971 65.26594399 24 63 C23.4534375 63.18304688 22.906875 63.36609375 22.34375 63.5546875 C18.82014988 64.22417152 15.75322542 63.14207519 12.375 62.1875 C11.694375 62.00896484 11.01375 61.83042969 10.3125 61.64648438 C5.26487032 60.26487032 5.26487032 60.26487032 3 58 C-2.61633039 58.23899278 -7.3676041 60.16006311 -12.546875 62.2578125 C-15 63 -15 63 -18 62 C-19.07018517 59.57670715 -19.93613743 57.26039251 -20.75 54.75 C-21.00023926 54.0072583 -21.25047852 53.2645166 -21.50830078 52.49926758 C-22.05313256 50.87763307 -22.5927668 49.25424555 -23.12792969 47.62939453 C-24.04678087 44.85895018 -24.99368383 42.0991904 -25.9453125 39.33984375 C-26.58920559 37.45595596 -27.23244564 35.57184482 -27.875 33.6875 C-28.1853418 32.78676758 -28.49568359 31.88603516 -28.81542969 30.95800781 C-29.10063477 30.10948242 -29.38583984 29.26095703 -29.6796875 28.38671875 C-29.93476074 27.63608154 -30.18983398 26.88544434 -30.45263672 26.11206055 C-31 24 -31 24 -31 20 C-27.7 19.01 -24.4 18.02 -21 17 C-21.20625 15.783125 -21.4125 14.56625 -21.625 13.3125 C-22.06921995 9.60848951 -22.00051384 7.2735681 -20 4 C-14.2842723 -1.65268659 -7.48714179 -1.09289433 0 0 Z M-15.6875 5 C-17.7965 8.21371429 -17.18614585 11.21503429 -17 15 C-15.68 14.67 -14.36 14.34 -13 14 C-12.34 10.7 -11.68 7.4 -11 4 C-13.89677829 3.7450988 -13.89677829 3.7450988 -15.6875 5 Z M-3 4 C-2.67 5.98 -2.34 7.96 -2 10 C-0.35 9.67 1.3 9.34 3 9 C2.28436734 6.9837767 2.28436734 6.9837767 1 5 C-1.05000871 4.19471111 -1.05000871 4.19471111 -3 4 Z M-8 6 C-9.29633621 7.06645115 -9.29633621 7.06645115 -9.0625 9.5625 C-9.041875 10.366875 -9.02125 11.17125 -9 12 C-8.01 11.67 -7.02 11.34 -6 11 C-6.33 9.35 -6.66 7.7 -7 6 C-7.33 6 -7.66 6 -8 6 Z M8 31 C11.21182149 32.90608098 13.53882603 33.22266247 17.25 33.125 C18.58804688 33.09792969 18.58804688 33.09792969 19.953125 33.0703125 C20.62859375 33.04710937 21.3040625 33.02390625 22 33 C22 32.67 22 32.34 22 32 C17.32798795 30.79431947 12.78503708 30.90617574 8 31 Z M4 34 C1.70986347 37.4352048 1.82157027 38.985331 2 43 C2.33 43 2.66 43 3 43 C3 41.35 3 39.7 3 38 C3.64066406 38.32613281 4.28132813 38.65226562 4.94140625 38.98828125 C10.87072222 41.98531046 10.87072222 41.98531046 16.9375 44.6875 C20 46 20 46 23 48 C23 47.34 23 46.68 23 46 C23.99 46.66 24.98 47.32 26 48 C28.33199388 48.07905064 30.66832622 48.08798769 33 48 C31.02579865 45.47740939 30.03254358 45.0070192 26.8125 44.3125 C25.884375 44.209375 24.95625 44.10625 24 44 C24.99 42.35 25.98 40.7 27 39 C26.3709375 39.11859375 25.741875 39.2371875 25.09375 39.359375 C19.28442848 40.23427282 15.80583744 40.05898308 10.7890625 36.91015625 C8.74035029 35.69771325 8.74035029 35.69771325 5 36 C4.67 35.34 4.34 34.68 4 34 Z M3 43 C4 45 4 45 4 45 Z M4 45 C5 47 5 47 5 47 Z " fill="#FD5907" transform="translate(36,2)"/>
<path d="M0 0 C1.66534667 0.33986667 3.33129513 0.67702486 5 1 C4 4 4 4 2 5 C2.66386719 5.03738281 3.32773438 5.07476563 4.01171875 5.11328125 C13.04401038 5.78575844 13.04401038 5.78575844 17 9 C19 12 19 12 18.625 14.6875 C18.315625 15.8321875 18.315625 15.8321875 18 17 C17.01 17 16.02 17 15 17 C14.34 16.01 13.68 15.02 13 14 C10.07665027 13.08221709 10.07665027 13.08221709 7 13 C6.01 13.66 5.02 14.32 4 15 C4.886875 15.103125 5.77375 15.20625 6.6875 15.3125 C10.10101256 16.02096487 12.23923528 16.88882698 15 19 C15 19.99 15 20.98 15 22 C14.01 22.33 13.02 22.66 12 23 C14.26042571 24.13021285 15.92910996 24.26934344 18.4375 24.5 C21.21487706 24.75623248 23.32662467 25.10887489 26 26 C26.495 28.97 26.495 28.97 27 32 C24.0154021 32.99486597 21.22665912 33.32858555 18.11328125 33.67578125 C15.7243436 33.98711871 15.7243436 33.98711871 12.4375 35.125 C8.00176665 36.25409576 4.13671215 36.06835608 0 34 C2.34591852 36.7710688 4.14776201 37.52059284 7.6875 38.1875 C8.89986328 38.42533203 8.89986328 38.42533203 10.13671875 38.66796875 C10.75160156 38.77753906 11.36648437 38.88710938 12 39 C11.67 40.32 11.34 41.64 11 43 C5.46446021 43.19347518 1.13613971 43.26594399 -4 41 C-4.5465625 41.18304688 -5.093125 41.36609375 -5.65625 41.5546875 C-9.17985012 42.22417152 -12.24677458 41.14207519 -15.625 40.1875 C-16.305625 40.00896484 -16.98625 39.83042969 -17.6875 39.64648438 C-22.73512968 38.26487032 -22.73512968 38.26487032 -25 36 C-30.61633039 36.23899278 -35.3676041 38.16006311 -40.546875 40.2578125 C-43 41 -43 41 -46 40 C-46.94921875 37.71484375 -46.94921875 37.71484375 -47.6875 34.9375 C-48.06455078 33.55884766 -48.06455078 33.55884766 -48.44921875 32.15234375 C-48.63097656 31.44207031 -48.81273437 30.73179688 -49 30 C-45.09375 32.6015625 -45.09375 32.6015625 -44.25 36.1875 C-44.1675 37.115625 -44.085 38.04375 -44 39 C-43.608125 38.505 -43.21625 38.01 -42.8125 37.5 C-40.44908285 35.54406857 -38.98564997 35.75792027 -36 36 C-35.8453125 35.071875 -35.8453125 35.071875 -35.6875 34.125 C-35 32 -35 32 -32 30 C-31.01 30 -30.02 30 -29 30 C-28.67 23.07 -28.34 16.14 -28 9 C-23.73727501 7.29491 -20.48688907 6.5278693 -16 6 C-15.67 4.02 -15.34 2.04 -15 0 C-9.39623029 -2.58635525 -5.6673304 -1.55226513 0 0 Z M-20 9 C-16.78817851 10.90608098 -14.46117397 11.22266247 -10.75 11.125 C-9.41195312 11.09792969 -9.41195312 11.09792969 -8.046875 11.0703125 C-7.37140625 11.04710937 -6.6959375 11.02390625 -6 11 C-6 10.67 -6 10.34 -6 10 C-10.67201205 8.79431947 -15.21496292 8.90617574 -20 9 Z M-24 12 C-26.29013653 15.4352048 -26.17842973 16.985331 -26 21 C-25.67 21 -25.34 21 -25 21 C-25 19.35 -25 17.7 -25 16 C-24.35933594 16.32613281 -23.71867187 16.65226562 -23.05859375 16.98828125 C-17.12927778 19.98531046 -17.12927778 19.98531046 -11.0625 22.6875 C-8 24 -8 24 -5 26 C-5 25.34 -5 24.68 -5 24 C-4.01 24.66 -3.02 25.32 -2 26 C0.33199388 26.07905064 2.66832622 26.08798769 5 26 C3.02579865 23.47740939 2.03254358 23.0070192 -1.1875 22.3125 C-2.115625 22.209375 -3.04375 22.10625 -4 22 C-3.01 20.35 -2.02 18.7 -1 17 C-1.6290625 17.11859375 -2.258125 17.2371875 -2.90625 17.359375 C-8.71557152 18.23427282 -12.19416256 18.05898308 -17.2109375 14.91015625 C-19.25964971 13.69771325 -19.25964971 13.69771325 -23 14 C-23.33 13.34 -23.66 12.68 -24 12 Z M-25 21 C-24 23 -24 23 -24 23 Z M-24 23 C-23 25 -23 25 -23 25 Z " fill="#FDAF12" transform="translate(64,24)"/>
<path d="M0 0 C3.72550403 3.37069412 5.46140724 6.52947747 5.75390625 11.6171875 C5.43181105 17.4149011 3.80341203 20.39093271 -0.375 24.375 C-4.63757348 26.9413329 -8.5236771 26.89809916 -13.375 26.375 C-17.57980229 25.02628983 -19.06847248 23.77832569 -21.75 20.25 C-23.87572995 16.02533502 -24.19497898 12.00745854 -23.375 7.375 C-21.29568144 2.96684466 -18.66058089 0.20588269 -14.3671875 -1.99609375 C-9.24283104 -3.61378275 -4.69216524 -2.25919067 0 0 Z M-13.1875 7.5 C-14.94502414 10.27503811 -14.84322746 12.16429745 -14.375 15.375 C-12.79804368 17.4535608 -12.79804368 17.4535608 -10.375 18.375 C-7.73962492 18.38135246 -7.73962492 18.38135246 -5.375 17.375 C-3.04203749 14.54782787 -3.04203749 14.54782787 -3.625 11.3125 C-4.1343244 8.275541 -4.1343244 8.275541 -6.375 6.375 C-9.18484248 6.01476378 -10.75741919 5.99167398 -13.1875 7.5 Z " fill="#F7BB51" transform="translate(217.375,21.625)"/>
<path d="M0 0 C1.13050781 -0.01675781 2.26101562 -0.03351562 3.42578125 -0.05078125 C8.02515724 0.46148458 10.6230607 2.03517284 13.5625 5.5625 C15.06054595 9.22439011 14.58851324 11.50052091 13.6875 15.3125 C13.275 16.01375 12.8625 16.715 12.4375 17.4375 C12.19 18.05625 11.9425 18.675 11.6875 19.3125 C13.0428326 21.84923288 13.0428326 21.84923288 14.6875 24.3125 C14.6875 25.6325 14.6875 26.9525 14.6875 28.3125 C11.7175 28.3125 8.7475 28.3125 5.6875 28.3125 C4.3675 26.0025 3.0475 23.6925 1.6875 21.3125 C1.3575 23.6225 1.0275 25.9325 0.6875 28.3125 C-5.46484375 28.41015625 -5.46484375 28.41015625 -7.3125 28.3125 C-9.90205157 25.72294843 -8.49808792 18.36072397 -8.5 14.875 C-8.51224609 13.70388672 -8.52449219 12.53277344 -8.53710938 11.32617188 C-8.53904297 10.20919922 -8.54097656 9.09222656 -8.54296875 7.94140625 C-8.54707764 6.91088135 -8.55118652 5.88035645 -8.55541992 4.81860352 C-8.03582084 -0.54188353 -4.52899343 0.01538729 0 0 Z M0.6875 8.3125 C0.6875 9.6325 0.6875 10.9525 0.6875 12.3125 C2.3375 11.9825 3.9875 11.6525 5.6875 11.3125 C5.3575 10.3225 5.0275 9.3325 4.6875 8.3125 C3.3675 8.3125 2.0475 8.3125 0.6875 8.3125 Z " fill="#F8BE5D" transform="translate(238.3125,18.6875)"/>
<path d="M0 0 C1.03769531 -0.02578125 2.07539062 -0.0515625 3.14453125 -0.078125 C7.58722919 0.40093357 10.18364204 2.07883238 13.0625 5.4375 C14.81057535 9.80768836 14.02594962 13.94426353 12.4375 18.3125 C12.00635977 21.65383681 13.75468581 24.26974648 15.1875 27.25 C14.1875 28.25 14.1875 28.25 10.4375 28.6875 C7.80286082 28.68276144 6.60817292 28.59354955 4.546875 26.91015625 C3.1875 25.25 3.1875 25.25 1.1875 22.25 C0.8575 24.23 0.5275 26.21 0.1875 28.25 C-2.4525 28.25 -5.0925 28.25 -7.8125 28.25 C-7.8125 19.34 -7.8125 10.43 -7.8125 1.25 C-5.13594199 -0.08827901 -2.98815948 0.04421444 0 0 Z M1.1875 8.25 C1.1875 9.57 1.1875 10.89 1.1875 12.25 C2.5075 12.25 3.8275 12.25 5.1875 12.25 C5.1875 11.26 5.1875 10.27 5.1875 9.25 C3.8675 8.92 2.5475 8.59 1.1875 8.25 Z " fill="#F7BC57" transform="translate(99.8125,18.75)"/>
<path d="M0 0 C2.875 1.375 2.875 1.375 5 3 C5 3.99 5 4.98 5 6 C4.01 6.33 3.02 6.66 2 7 C4.26042571 8.13021285 5.92910996 8.26934344 8.4375 8.5 C11.21487706 8.75623248 13.32662467 9.10887489 16 10 C16.495 12.97 16.495 12.97 17 16 C14.0154021 16.99486597 11.22665912 17.32858555 8.11328125 17.67578125 C5.7243436 17.98711871 5.7243436 17.98711871 2.4375 19.125 C-1.99823335 20.25409576 -5.86328785 20.06835608 -10 18 C-7.65408148 20.7710688 -5.85223799 21.52059284 -2.3125 22.1875 C-1.10013672 22.42533203 -1.10013672 22.42533203 0.13671875 22.66796875 C0.75160156 22.77753906 1.36648437 22.88710938 2 23 C1.67 24.32 1.34 25.64 1 27 C-4.53553979 27.19347518 -8.86386029 27.26594399 -14 25 C-14.928125 25.2475 -14.928125 25.2475 -15.875 25.5 C-19.18809309 26.27955132 -21.83448259 25.03488069 -25 24 C-25 23.67 -25 23.34 -25 23 C-22.69 23 -20.38 23 -18 23 C-18 22.34 -18 21.68 -18 21 C-15.69 21.33 -13.38 21.66 -11 22 C-12.92223883 16.8403063 -14.80186938 13.74427866 -19 10 C-18.67 9.01 -18.34 8.02 -18 7 C-17.34 7.66 -16.68 8.32 -16 9 C-14.68 9 -13.36 9 -12 9 C-10 9 -8 9 -6 9 C-8.64 8.01 -11.28 7.02 -14 6 C-12.94728122 2.94711553 -11.99648603 1.99768398 -9.25 0.1875 C-5.50156103 -1.18212193 -3.79357813 -1.130002 0 0 Z " fill="#F8DB50" transform="translate(74,40)"/>
<path d="M0 0 C0.79792969 0.00386719 1.59585937 0.00773437 2.41796875 0.01171875 C3.21589844 0.00785156 4.01382812 0.00398438 4.8359375 0 C10.79136108 0.01011108 10.79136108 0.01011108 11.91796875 1.13671875 C11.95889812 3.46969308 11.96038598 5.803771 11.91796875 8.13671875 C4.16796875 9.26171875 4.16796875 9.26171875 1.91796875 8.13671875 C1.91796875 8.79671875 1.91796875 9.45671875 1.91796875 10.13671875 C3.21734375 10.11609375 4.51671875 10.09546875 5.85546875 10.07421875 C7.20962508 10.05272421 8.56552958 10.06523676 9.91796875 10.13671875 C10.91796875 11.13671875 10.91796875 11.13671875 10.98046875 14.69921875 C10.95984375 15.83359375 10.93921875 16.96796875 10.91796875 18.13671875 C7.94796875 18.13671875 4.97796875 18.13671875 1.91796875 18.13671875 C1.91796875 18.79671875 1.91796875 19.45671875 1.91796875 20.13671875 C2.55605469 20.12511719 3.19414062 20.11351563 3.8515625 20.1015625 C4.67785156 20.09253906 5.50414062 20.08351563 6.35546875 20.07421875 C7.17917969 20.06261719 8.00289063 20.05101563 8.8515625 20.0390625 C10.91796875 20.13671875 10.91796875 20.13671875 11.91796875 21.13671875 C11.95889812 23.46969308 11.96038598 25.803771 11.91796875 28.13671875 C8.93874282 28.16355862 5.9597558 28.18347912 2.98046875 28.19921875 C1.70526367 28.21178711 1.70526367 28.21178711 0.40429688 28.22460938 C-0.40458984 28.22783203 -1.21347656 28.23105469 -2.046875 28.234375 C-2.79573975 28.23961182 -3.54460449 28.24484863 -4.31616211 28.25024414 C-6.08203125 28.13671875 -6.08203125 28.13671875 -7.08203125 27.13671875 C-7.18174911 25.22213593 -7.21283714 23.30389558 -7.21484375 21.38671875 C-7.21613281 20.22140625 -7.21742188 19.05609375 -7.21875 17.85546875 C-7.21488281 16.62828125 -7.21101563 15.40109375 -7.20703125 14.13671875 C-7.21089844 12.90953125 -7.21476562 11.68234375 -7.21875 10.41796875 C-7.21746094 9.25265625 -7.21617187 8.08734375 -7.21484375 6.88671875 C-7.21371582 5.8090625 -7.21258789 4.73140625 -7.21142578 3.62109375 C-6.96069023 -1.19302889 -4.17597982 0.00708995 0 0 Z " fill="#EFC171" transform="translate(267.08203125,18.86328125)"/>
<path d="M0 0 C1.16015625 0.23976563 1.16015625 0.23976563 2.34375 0.484375 C4.78146493 1.34994045 5.94667153 2.19070135 7.5 4.25 C7.1875 6.9375 7.1875 6.9375 6.5 9.25 C5.51 9.58 4.52 9.91 3.5 10.25 C4.139375 10.683125 4.77875 11.11625 5.4375 11.5625 C7.5 13.25 7.5 13.25 8.5 16.25 C9.07065217 22.52717391 9.07065217 22.52717391 6.625 25.625 C2.44896144 28.81844125 -1.36790984 28.91192788 -6.5 28.25 C-8.86185168 27.15291271 -10.46522046 25.9195627 -12.5 24.25 C-12.00168276 20.56245243 -11.39932357 18.64509338 -8.5 16.25 C-9.180625 15.569375 -9.86125 14.88875 -10.5625 14.1875 C-12.5 11.25 -12.5 11.25 -12.5 7.6875 C-11.42508595 3.99248297 -10.52271057 2.56148455 -7.5 0.25 C-4.30153844 -0.81615385 -3.19739078 -0.70342597 0 0 Z M-5.5 17.25 C-5.5 17.91 -5.5 18.57 -5.5 19.25 C-3.025 19.745 -3.025 19.745 -0.5 20.25 C-1.87485532 18.70833358 -1.87485532 18.70833358 -3.5 17.25 C-4.16 17.25 -4.82 17.25 -5.5 17.25 Z " fill="#F9BC56" transform="translate(153.5,19.75)"/>
<path d="M0 0 C2.21793005 1.25010603 3.5454316 2.5234753 5.2421875 4.40234375 C8.23431357 7.12185389 11.95016684 8.01388221 15.7421875 9.23828125 C18 10 18 10 19 11 C19.04092937 13.33297433 19.04241723 15.66705225 19 18 C18.67 18 18.34 18 18 18 C18 16.02 18 14.04 18 12 C15.36 11.34 12.72 10.68 10 10 C10 10.99 10 11.98 10 13 C7.03 12.67 4.06 12.34 1 12 C0.67 13.98 0.34 15.96 0 18 C-1.32 18 -2.64 18 -4 18 C-4.33 17.01 -4.66 16.02 -5 15 C-7.91652174 14.83318891 -7.91652174 14.83318891 -11 15 C-11.66 15.66 -12.32 16.32 -13 17 C-13.99 17 -14.98 17 -16 17 C-16.33 18.32 -16.66 19.64 -17 21 C-17.99 20.67 -18.98 20.34 -20 20 C-22.29453495 20.09406754 -22.29453495 20.09406754 -24.6875 20.4375 C-25.49574219 20.53933594 -26.30398437 20.64117188 -27.13671875 20.74609375 C-28.05904297 20.87177734 -28.05904297 20.87177734 -29 21 C-28.566875 22.0209375 -28.566875 22.0209375 -28.125 23.0625 C-27.14139848 25.63079286 -26.36445388 28.18060887 -25.64453125 30.83203125 C-24.49008463 34.71516988 -23.07605885 38.51613296 -21.70703125 42.328125 C-21 45 -21 45 -22 48 C-24.79030183 43.81454726 -26.05199613 39.31668041 -27.625 34.5625 C-27.94984375 33.60794922 -28.2746875 32.65339844 -28.609375 31.66992188 C-29.06957031 30.28836914 -29.06957031 30.28836914 -29.5390625 28.87890625 C-29.81959473 28.0391626 -30.10012695 27.19941895 -30.38916016 26.33422852 C-31 24 -31 24 -31 20 C-27.7 19.01 -24.4 18.02 -21 17 C-21.20625 15.783125 -21.4125 14.56625 -21.625 13.3125 C-22.06921995 9.60848951 -22.00051384 7.2735681 -20 4 C-14.2842723 -1.65268659 -7.48714179 -1.09289433 0 0 Z M-15.6875 5 C-17.7965 8.21371429 -17.18614585 11.21503429 -17 15 C-15.68 14.67 -14.36 14.34 -13 14 C-12.34 10.7 -11.68 7.4 -11 4 C-13.89677829 3.7450988 -13.89677829 3.7450988 -15.6875 5 Z M-3 4 C-2.67 5.98 -2.34 7.96 -2 10 C-0.35 9.67 1.3 9.34 3 9 C2.28436734 6.9837767 2.28436734 6.9837767 1 5 C-1.05000871 4.19471111 -1.05000871 4.19471111 -3 4 Z M-8 6 C-9.29633621 7.06645115 -9.29633621 7.06645115 -9.0625 9.5625 C-9.041875 10.366875 -9.02125 11.17125 -9 12 C-8.01 11.67 -7.02 11.34 -6 11 C-6.33 9.35 -6.66 7.7 -7 6 C-7.33 6 -7.66 6 -8 6 Z " fill="#DE6130" transform="translate(36,2)"/>
<path d="M0 0 C0.59167969 0.13277344 1.18335937 0.26554687 1.79296875 0.40234375 C5.85446525 1.31005178 9.91374171 2.2091113 14 3 C13 6 13 6 11 7 C11.66386719 7.03738281 12.32773438 7.07476563 13.01171875 7.11328125 C22.04401038 7.78575844 22.04401038 7.78575844 26 11 C28 14 28 14 27.625 16.6875 C27.41875 17.450625 27.2125 18.21375 27 19 C26.01 19 25.02 19 24 19 C23.34 18.01 22.68 17.02 22 16 C18.38467993 14.85455206 16.6141399 14.73478439 13.10546875 16.25 C12.14253906 16.8275 11.17960937 17.405 10.1875 18 C5.37446504 20.57371969 2.27186016 21.71015466 -3.10546875 20.625 C-5.68715624 19.77330928 -7.77232152 18.54699894 -10 17 C-11.65369357 16.30177383 -13.31727014 15.62501395 -15 15 C-15.66 17.31 -16.32 19.62 -17 22 C-17.33 22 -17.66 22 -18 22 C-18.40996869 17.8183194 -18.55036725 15.72817821 -15.96875 12.3125 C-12.3740976 9.51245497 -9.57743283 9.22530803 -5.1875 9.1875 C-4.49462891 9.16236328 -3.80175781 9.13722656 -3.08789062 9.11132812 C-1.39252878 9.05286737 0.30379287 9.02346953 2 9 C2.33 8.01 2.66 7.02 3 6 C3.66 5.67 4.32 5.34 5 5 C3.7625 4.319375 3.7625 4.319375 2.5 3.625 C1.675 3.08875 0.85 2.5525 0 2 C0 1.34 0 0.68 0 0 Z M-11 11 C-7.78817851 12.90608098 -5.46117397 13.22266247 -1.75 13.125 C-0.41195312 13.09792969 -0.41195312 13.09792969 0.953125 13.0703125 C1.62859375 13.04710937 2.3040625 13.02390625 3 13 C3 12.67 3 12.34 3 12 C-1.67201205 10.79431947 -6.21496292 10.90617574 -11 11 Z " fill="#FDB62A" transform="translate(55,22)"/>
<path d="M0 0 C0.77915771 0.00410889 1.55831543 0.00821777 2.36108398 0.01245117 C3.20735352 0.01438477 4.05362305 0.01631836 4.92553711 0.01831055 C5.81047852 0.03055664 6.69541992 0.04280273 7.60717773 0.05541992 C8.49598633 0.05606445 9.38479492 0.05670898 10.30053711 0.05737305 C16.90446676 0.10270895 16.90446676 0.10270895 18.04467773 1.24291992 C18.08560711 3.57589425 18.08709497 5.90997217 18.04467773 8.24291992 C15.73467773 8.24291992 13.42467773 8.24291992 11.04467773 8.24291992 C11.04467773 14.84291992 11.04467773 21.44291992 11.04467773 28.24291992 C8.40467773 28.24291992 5.76467773 28.24291992 3.04467773 28.24291992 C3.04467773 21.64291992 3.04467773 15.04291992 3.04467773 8.24291992 C0.73467773 8.24291992 -1.57532227 8.24291992 -3.95532227 8.24291992 C-4.08032227 5.36791992 -4.08032227 5.36791992 -3.95532227 2.24291992 C-1.95532227 0.24291992 -1.95532227 0.24291992 0 0 Z " fill="#F2BA60" transform="translate(170.955322265625,18.757080078125)"/>
<path d="M0 0 C0.99 0.33 1.98 0.66 3 1 C4.231394 4.69418201 3.64432764 7.2056261 3 11 C4.33038449 11.3449145 5.66457061 11.67516582 7 12 C7.804375 12.226875 8.60875 12.45375 9.4375 12.6875 C12.59858053 13.07299763 14.21650689 12.50459087 17 11 C17.66 10.01 18.32 9.02 19 8 C19.66 8.33 20.32 8.66 21 9 C21.33 8.34 21.66 7.68 22 7 C22.66 7 23.32 7 24 7 C24.42397033 11.23970328 24.43792242 13.98342177 21.75 17.3125 C18.17641984 20.80486243 15.63700462 22.28612103 10.625 22.3125 C6.40227454 22.18727915 3.45190769 21.60997899 0 19 C-2.20352803 13.99198176 -2.71528543 8.42775412 -2 3 C-1.34 2.01 -0.68 1.02 0 0 Z " fill="#F6A648" transform="translate(198,26)"/>
<path d="M0 0 C2.31 0 4.62 0 7 0 C6.34 2.97 5.68 5.94 5 9 C7.64 9 10.28 9 13 9 C13 10.65 13 12.3 13 14 C10.69 14.33 8.38 14.66 6 15 C5.67 15.99 5.34 16.98 5 18 C7.97 18.33 10.94 18.66 14 19 C14 20.65 14 22.3 14 24 C11.52076199 24.02685095 9.0418116 24.04676547 6.5625 24.0625 C5.85544922 24.07087891 5.14839844 24.07925781 4.41992188 24.08789062 C2.61306441 24.09653588 0.80612397 24.05220011 -1 24 C-1.33 23.67 -1.66 23.34 -2 23 C-1.96157314 20.19188365 -1.85454255 17.4258231 -1.6875 14.625 C-1.63432617 13.45324219 -1.63432617 13.45324219 -1.58007812 12.2578125 C-1.53689453 11.505 -1.49371094 10.7521875 -1.44921875 9.9765625 C-1.41143311 9.28643066 -1.37364746 8.59629883 -1.3347168 7.88525391 C-1 6 -1 6 1 3 C1.66 3 2.32 3 3 3 C3 2.34 3 1.68 3 1 C2.01 1.33 1.02 1.66 0 2 C0 1.34 0 0.68 0 0 Z " fill="#F48E37" transform="translate(263,22)"/>
<path d="M0 0 C0.556875 0.45375 1.11375 0.9075 1.6875 1.375 C0.3675 1.375 -0.9525 1.375 -2.3125 1.375 C-1.8175 2.86 -1.8175 2.86 -1.3125 4.375 C-4.74604855 6.09177427 -8.91973077 5.66210102 -12.7265625 5.71679688 C-16.03387714 5.85677181 -18.03770113 6.18189809 -20.76953125 8.1015625 C-22.60530675 10.80642665 -22.76658363 12.20060527 -22.625 15.4375 C-22.60050781 16.29472656 -22.57601562 17.15195312 -22.55078125 18.03515625 C-22.38306207 20.52745924 -22.38306207 20.52745924 -21.3125 23.375 C-21.9725 23.375 -22.6325 23.375 -23.3125 23.375 C-22.9825 25.355 -22.6525 27.335 -22.3125 29.375 C-23.7975 29.87 -23.7975 29.87 -25.3125 30.375 C-25.3125 31.365 -25.3125 32.355 -25.3125 33.375 C-27.57958325 34.2405047 -29.85025079 35.09259315 -32.125 35.9375 C-33.08889648 36.3077832 -33.08889648 36.3077832 -34.07226562 36.68554688 C-38.97265625 38.48828125 -38.97265625 38.48828125 -42.3125 37.375 C-43.26171875 35.08984375 -43.26171875 35.08984375 -44 32.3125 C-44.37705078 30.93384766 -44.37705078 30.93384766 -44.76171875 29.52734375 C-44.94347656 28.81707031 -45.12523437 28.10679688 -45.3125 27.375 C-41.40625 29.9765625 -41.40625 29.9765625 -40.5625 33.5625 C-40.48 34.490625 -40.3975 35.41875 -40.3125 36.375 C-39.920625 35.88 -39.52875 35.385 -39.125 34.875 C-36.76158285 32.91906857 -35.29814997 33.13292027 -32.3125 33.375 C-32.1578125 32.446875 -32.1578125 32.446875 -32 31.5 C-31.3125 29.375 -31.3125 29.375 -28.3125 27.375 C-27.3225 27.375 -26.3325 27.375 -25.3125 27.375 C-24.9825 20.445 -24.6525 13.515 -24.3125 6.375 C-20.04977501 4.66991 -16.79938907 3.9028693 -12.3125 3.375 C-11.9825 1.395 -11.6525 -0.585 -11.3125 -2.625 C-6.74294688 -4.31742708 -3.82371089 -2.68693198 0 0 Z " fill="#FC7912" transform="translate(60.3125,26.625)"/>
<path d="M0 0 C0.99 0.33 1.98 0.66 3 1 C3.068654 3.95212198 3.11131852 6.56585776 2.375 9.4375 C1.85756835 12.97328294 2.88386117 15.6515835 4 19 C-3.38461538 18.50769231 -3.38461538 18.50769231 -6.5 15.9375 C-7.2425 14.9784375 -7.2425 14.9784375 -8 14 C-8.33 15.65 -8.66 17.3 -9 19 C-10.98 19 -12.96 19 -15 19 C-15.21802745 12.98001986 -15.28020848 7.64051572 -13 2 C-12.01 1.67 -11.02 1.34 -10 1 C-10 2.65 -10 4.3 -10 6 C-7.03 6 -4.06 6 -1 6 C-1.020625 5.195625 -1.04125 4.39125 -1.0625 3.5625 C-1 1 -1 1 0 0 Z " fill="#F7A143" transform="translate(108,27)"/>
<path d="M0 0 C1.95099609 0.00193359 1.95099609 0.00193359 3.94140625 0.00390625 C7.48968884 0.44397258 8.90052628 1.00381274 11.4375 3.4375 C11.1075 5.0875 10.7775 6.7375 10.4375 8.4375 C9.7775 8.1075 9.1175 7.7775 8.4375 7.4375 C8.4375 6.7775 8.4375 6.1175 8.4375 5.4375 C7.1175 5.1075 5.7975 4.7775 4.4375 4.4375 C4.4375 6.4175 4.4375 8.3975 4.4375 10.4375 C1.4375 9.4375 1.4375 9.4375 -0.5625 7.4375 C-0.645 8.22125 -0.7275 9.005 -0.8125 9.8125 C-1.5625 12.4375 -1.5625 12.4375 -3.625 13.75 C-4.264375 13.976875 -4.90375 14.20375 -5.5625 14.4375 C-5.6875 7.6875 -5.6875 7.6875 -4.5625 5.4375 C-5.8825 5.4375 -7.2025 5.4375 -8.5625 5.4375 C-8.8925 8.7375 -9.2225 12.0375 -9.5625 15.4375 C-8.5725 15.7675 -7.5825 16.0975 -6.5625 16.4375 C-10.99326923 18.52980769 -10.99326923 18.52980769 -13.875 18.0625 C-14.7103125 17.753125 -14.7103125 17.753125 -15.5625 17.4375 C-14.9025 17.4375 -14.2425 17.4375 -13.5625 17.4375 C-13.76875 16.220625 -13.975 15.00375 -14.1875 13.75 C-14.63171995 10.04598951 -14.56301384 7.7110681 -12.5625 4.4375 C-8.5002914 0.3752914 -5.67027832 -0.08446293 0 0 Z " fill="#E4703F" transform="translate(28.5625,1.5625)"/>
<path d="M0 0 C1.98 0.495 1.98 0.495 4 1 C4 1.66 4 2.32 4 3 C7.3 2.67 10.6 2.34 14 2 C14.103125 3.0725 14.20625 4.145 14.3125 5.25 C14.99183415 8.95545901 15.69872084 10.19844276 18 13 C18 13.99 18 14.98 18 16 C14.75 16.375 14.75 16.375 11 16 C8.75 13.0625 8.75 13.0625 7 10 C6.01 9.67 5.02 9.34 4 9 C4 11.31 4 13.62 4 16 C2.35 16 0.7 16 -1 16 C-1.11138159 10.54230189 -0.91657981 5.38490641 0 0 Z " fill="#F79D41" transform="translate(233,30)"/>
<path d="M0 0 C0 0.99 0 1.98 0 3 C1.65 3.33 3.3 3.66 5 4 C5 4.66 5 5.32 5 6 C6.65 6 8.3 6 10 6 C10.33 7.32 10.66 8.64 11 10 C11.66 10 12.32 10 13 10 C14.125 15.75 14.125 15.75 13 18 C7.95731948 19.9162186 4.24508233 20.28652963 -1 19 C-3.4375 17.4375 -3.4375 17.4375 -5 16 C-4.67 15.01 -4.34 14.02 -4 13 C-3.01 12.67 -2.02 12.34 -1 12 C-0.34 12.66 0.32 13.32 1 14 C2.32 14 3.64 14 5 14 C5.04289755 12.06890419 5.04289755 12.06890419 4 10 C2.845 9.54625 1.69 9.0925 0.5 8.625 C-0.655 8.08875 -1.81 7.5525 -3 7 C-3.9375 3.8125 -3.9375 3.8125 -4 1 C-2 0 -2 0 0 0 Z " fill="#F7A748" transform="translate(148,27)"/>
<path d="M0 0 C0.33 0.66 0.66 1.32 1 2 C0.34 2.66 -0.32 3.32 -1 4 C-0.67958603 6.60280568 -0.67958603 6.60280568 0 9 C0.83144531 8.91621094 1.66289063 8.83242188 2.51953125 8.74609375 C3.60621094 8.64425781 4.69289063 8.54242188 5.8125 8.4375 C6.89144531 8.33308594 7.97039062 8.22867188 9.08203125 8.12109375 C12 8 12 8 15 9 C15 10.32 15 11.64 15 13 C11.60710335 13.42439217 8.21084267 13.80940921 4.8125 14.1875 C3.37293945 14.36829102 3.37293945 14.36829102 1.90429688 14.55273438 C-5.21839641 15.3167603 -5.21839641 15.3167603 -9.11328125 13.73828125 C-11 12 -11 12 -12 9 C-9.36 9 -6.72 9 -4 9 C-4.33 7.35 -4.66 5.7 -5 4 C-7.97 3.505 -7.97 3.505 -11 3 C-10.67 2.01 -10.34 1.02 -10 0 C-6.26840331 -1.24386556 -3.81984796 -0.77811718 0 0 Z " fill="#FCDE20" transform="translate(74,42)"/>
<path d="M0 0 C11.90900701 -0.56312292 11.90900701 -0.56312292 16 3 C18 6 18 6 17.625 8.6875 C17.41875 9.450625 17.2125 10.21375 17 11 C16.01 11 15.02 11 14 11 C13.34 10.01 12.68 9.02 12 8 C8.38467993 6.85455206 6.6141399 6.73478439 3.10546875 8.25 C2.14253906 8.8275 1.17960937 9.405 0.1875 10 C-4.62553496 12.57371969 -7.72813984 13.71015466 -13.10546875 12.625 C-15.68715624 11.77330928 -17.77232152 10.54699894 -20 9 C-21.65369357 8.30177383 -23.31727014 7.62501395 -25 7 C-25.99 10.465 -25.99 10.465 -27 14 C-27.33 14 -27.66 14 -28 14 C-28.40103505 9.90944253 -28.37797038 7.63445029 -26.25 4.0625 C-21.39609902 0.98213976 -16.60948856 1.26698568 -11 2 C-9.68 2.66 -8.36 3.32 -7 4 C-10.3 4 -13.6 4 -17 4 C-14.03 4.33 -11.06 4.66 -8 5 C-8 5.33 -8 5.66 -8 6 C-11.3 6.33 -14.6 6.66 -18 7 C-16.68 7.66 -15.36 8.32 -14 9 C-14 9.66 -14 10.32 -14 11 C-8.80386779 10.70587931 -5.21806377 9.74212468 -0.5625 7.375 C4.86213767 4.73086795 8.15097533 4.75348654 14 6 C14 5.34 14 4.68 14 4 C10.88089144 2.20724134 8.32317572 1.65709282 4.75 1.375 C3.85796875 1.30023437 2.9659375 1.22546875 2.046875 1.1484375 C1.03367187 1.07496094 1.03367187 1.07496094 0 1 C0 0.67 0 0.34 0 0 Z " fill="#EFA54E" transform="translate(65,30)"/>
<path d="M0 0 C1.13050781 -0.01675781 2.26101562 -0.03351562 3.42578125 -0.05078125 C8.02515724 0.46148458 10.6230607 2.03517284 13.5625 5.5625 C15.06054595 9.22439011 14.58851324 11.50052091 13.6875 15.3125 C13.275 16.01375 12.8625 16.715 12.4375 17.4375 C12.19 18.05625 11.9425 18.675 11.6875 19.3125 C13.0428326 21.84923288 13.0428326 21.84923288 14.6875 24.3125 C14.6875 25.6325 14.6875 26.9525 14.6875 28.3125 C11.7175 28.3125 8.7475 28.3125 5.6875 28.3125 C5.6875 27.9825 5.6875 27.6525 5.6875 27.3125 C7.9975 27.3125 10.3075 27.3125 12.6875 27.3125 C12.1925 26.44625 11.6975 25.58 11.1875 24.6875 C9.6397239 21.20500377 9.41947104 19.06490542 9.6875 15.3125 C10.3475 15.3125 11.0075 15.3125 11.6875 15.3125 C11.57387738 13.8324159 11.44627092 12.35339926 11.3125 10.875 C11.24289063 10.05128906 11.17328125 9.22757813 11.1015625 8.37890625 C10.96492188 7.69699219 10.82828125 7.01507812 10.6875 6.3125 C10.0275 5.9825 9.3675 5.6525 8.6875 5.3125 C8.6875 4.6525 8.6875 3.9925 8.6875 3.3125 C3.7375 3.3125 -1.2125 3.3125 -6.3125 3.3125 C-6.3125 10.9025 -6.3125 18.4925 -6.3125 26.3125 C-4.6625 26.6425 -3.0125 26.9725 -1.3125 27.3125 C-1.3125 25.0025 -1.3125 22.6925 -1.3125 20.3125 C-0.6525 20.3125 0.0075 20.3125 0.6875 20.3125 C0.6875 22.9525 0.6875 25.5925 0.6875 28.3125 C-5.46484375 28.41015625 -5.46484375 28.41015625 -7.3125 28.3125 C-9.90205157 25.72294843 -8.49808792 18.36072397 -8.5 14.875 C-8.51224609 13.70388672 -8.52449219 12.53277344 -8.53710938 11.32617188 C-8.53904297 10.20919922 -8.54097656 9.09222656 -8.54296875 7.94140625 C-8.54707764 6.91088135 -8.55118652 5.88035645 -8.55541992 4.81860352 C-8.03582084 -0.54188353 -4.52899343 0.01538729 0 0 Z " fill="#EEBF86" transform="translate(238.3125,18.6875)"/>
<path d="M0 0 C0.66 0.33 1.32 0.66 2 1 C1.43251874 4.97236879 0.44641497 7.7943528 -2 11 C-6.05124669 13.61080342 -9.20372611 14.78306513 -14 14 C-16.51193325 12.53851156 -18.76416171 10.85217373 -21 9 C-20.67 8.01 -20.34 7.02 -20 6 C-19.01 6 -18.02 6 -17 6 C-17 6.66 -17 7.32 -17 8 C-13.37 8 -9.74 8 -6 8 C-6 7.01 -6 6.02 -6 5 C-5.34 4.67 -4.68 4.34 -4 4 C-3.34 3.01 -2.68 2.02 -2 1 C-1.34 1.33 -0.68 1.66 0 2 C0 1.34 0 0.68 0 0 Z " fill="#F58D35" transform="translate(219,33)"/>
<path d="M0 0 C2.375 0.1875 2.375 0.1875 5 1 C6.25 3.375 6.25 3.375 7 6 C7.33 6.99 7.66 7.98 8 9 C8.99 9.33 9.98 9.66 11 10 C12.64820195 12.60242414 13 13.86248779 13 17 C10.69 16.67 8.38 16.34 6 16 C6 16.66 6 17.32 6 18 C4.02 18 2.04 18 0 18 C-0.75 16.25 -0.75 16.25 -1 14 C-0.360625 13.4225 0.27875 12.845 0.9375 12.25 C3.2976885 9.67524891 3.27941642 9.09170575 3.25 5.75 C3.1675 4.5125 3.085 3.275 3 2 C2.01 1.67 1.02 1.34 0 1 C0 0.67 0 0.34 0 0 Z " fill="#FCBD11" transform="translate(50,45)"/>
<path d="M0 0 C2.31 0 4.62 0 7 0 C6.34 2.97 5.68 5.94 5 9 C7.64 9 10.28 9 13 9 C13 10.65 13 12.3 13 14 C10.69 14.33 8.38 14.66 6 15 C5.67 15.99 5.34 16.98 5 18 C6.65 18 8.3 18 10 18 C10 18.33 10 18.66 10 19 C8.02 19 6.04 19 4 19 C3.67 18.34 3.34 17.68 3 17 C3.9375 14.875 3.9375 14.875 5 13 C6.98 13 8.96 13 11 13 C10.67 12.34 10.34 11.68 10 11 C9.071875 11.185625 8.14375 11.37125 7.1875 11.5625 C4 12 4 12 1 11 C0.34 14.96 -0.32 18.92 -1 23 C-1.33 23 -1.66 23 -2 23 C-1.88613541 20.22829605 -1.75939222 17.45821954 -1.625 14.6875 C-1.5940625 13.90181641 -1.563125 13.11613281 -1.53125 12.30664062 C-1.49257813 11.54931641 -1.45390625 10.79199219 -1.4140625 10.01171875 C-1.3826416 9.31522217 -1.3512207 8.61872559 -1.31884766 7.90112305 C-1 6 -1 6 1 3 C1.66 3 2.32 3 3 3 C3 2.34 3 1.68 3 1 C2.01 1.33 1.02 1.66 0 2 C0 1.34 0 0.68 0 0 Z " fill="#F6AC50" transform="translate(263,22)"/>
<path d="M0 0 C0.66 0.66 1.32 1.32 2 2 C1.01 2.495 1.01 2.495 0 3 C3.01917621 5.01278414 4.04590762 5.29192943 7.5 5.5625 C10.27889602 5.78944318 12.32255263 6.10751754 15 7 C15.33 8.98 15.66 10.96 16 13 C13.01794295 13.99401902 10.23164416 14.3276279 7.12109375 14.67578125 C4.70688561 14.99273244 4.70688561 14.99273244 1.3125 16.125 C-2.08283638 17.02188131 -3.74846104 17.26448737 -7 16 C-8.8125 13.9375 -8.8125 13.9375 -10 12 C-9.01 12.185625 -8.02 12.37125 -7 12.5625 C-3.58887984 13.055674 -0.54954292 12.78037127 2.8671875 12.2578125 C6.56926832 11.81030823 10.27736618 11.92244513 14 12 C14 10.68 14 9.36 14 8 C9.05 8 4.1 8 -1 8 C-1.66 6.02 -2.32 4.04 -3 2 C-2.01 1.34 -1.02 0.68 0 0 Z " fill="#F9E94F" transform="translate(75,43)"/>
<path d="M0 0 C1.98 0.495 1.98 0.495 4 1 C5.0712828 7.02596573 5.09945415 12.88909517 5 19 C3.34385343 19.38218767 1.67542976 19.71395102 0 20 C-1 19 -1 19 -1.1328125 17.03125 C-1.11504644 11.27504564 -0.73672983 5.70965616 0 0 Z " fill="#FAA147" transform="translate(176,26)"/>
<path d="M0 0 C3.87357734 3.50466521 5.48011463 7.10512914 5.8125 12.3125 C5.7196875 13.3334375 5.7196875 13.3334375 5.625 14.375 C4.06426745 12.03390118 2.76126133 9.81166597 1.5 7.3125 C1.14679688 6.62027344 0.79359375 5.92804687 0.4296875 5.21484375 C-0.375 3.375 -0.375 3.375 -0.375 1.375 C-5.83348582 -0.31901284 -8.99727772 -1.18582013 -14.375 1.375 C-15.035 2.035 -15.695 2.695 -16.375 3.375 C-17.07109375 3.93703125 -17.7671875 4.4990625 -18.484375 5.078125 C-21.04693652 8.19131957 -20.78391667 10.15208324 -20.625 14.125 C-20.58890625 15.29546875 -20.5528125 16.4659375 -20.515625 17.671875 C-20.46921875 18.56390625 -20.4228125 19.4559375 -20.375 20.375 C-22.375 19.375 -22.375 19.375 -23.375 16.375 C-23.90995732 11.7708591 -23.80864314 8.29432346 -21.8125 4.0625 C-15.27098893 -3.14993528 -8.83291419 -4.25288461 0 0 Z " fill="#EEC885" transform="translate(217.375,21.625)"/>
<path d="M0 0 C0.556875 0.45375 1.11375 0.9075 1.6875 1.375 C0.3675 1.375 -0.9525 1.375 -2.3125 1.375 C-1.9825 2.365 -1.6525 3.355 -1.3125 4.375 C-4.19665883 5.81707941 -6.72971528 5.46894887 -9.9375 5.4375 C-11.12601563 5.42847656 -12.31453125 5.41945313 -13.5390625 5.41015625 C-14.45429687 5.39855469 -15.36953125 5.38695312 -16.3125 5.375 C-15.66796875 5.10945313 -15.0234375 4.84390625 -14.359375 4.5703125 C-13.68390625 4.17585938 -13.0084375 3.78140625 -12.3125 3.375 C-11.49665432 0.31591587 -11.49665432 0.31591587 -11.3125 -2.625 C-6.74294688 -4.31742708 -3.82371089 -2.68693198 0 0 Z " fill="#FD9213" transform="translate(60.3125,26.625)"/>
<path d="M0 0 C1.5 1.0625 1.5 1.0625 3 3 C3.1875 6.6875 3.1875 6.6875 3 10 C6.465 9.505 6.465 9.505 10 9 C10.33 7.35 10.66 5.7 11 4 C12.32 4.33 13.64 4.66 15 5 C15 7.31 15 9.62 15 12 C14.34 12 13.68 12 13 12 C13 13.65 13 15.3 13 17 C12.67 17 12.34 17 12 17 C11.67 15.02 11.34 13.04 11 11 C8.03 11 5.06 11 2 11 C2 10.34 2 9.68 2 9 C0.68 8.67 -0.64 8.34 -2 8 C-2 10.31 -2 12.62 -2 15 C-2.33 15 -2.66 15 -3 15 C-3.08142927 13.2507786 -3.13938541 11.50045458 -3.1875 9.75 C-3.22230469 8.77546875 -3.25710937 7.8009375 -3.29296875 6.796875 C-2.96075202 3.62531258 -2.11327721 2.32959693 0 0 Z " fill="#F9B250" transform="translate(235,22)"/>
<path d="M0 0 C1.32 0.33 2.64 0.66 4 1 C3.61704951 3.22111286 3.13079812 4.80380283 1.875 6.6875 C-1.08133746 8.75693622 -3.42200253 8.93935598 -7 9 C-10.4375 7.0625 -10.4375 7.0625 -13 5 C-12.67 4.01 -12.34 3.02 -12 2 C-11.01 1.67 -10.02 1.34 -9 1 C-8.34 1.66 -7.68 2.32 -7 3 C-3.93008319 2.83557723 -3.93008319 2.83557723 -1 2 C-0.67 1.34 -0.34 0.68 0 0 Z " fill="#F68D33" transform="translate(156,38)"/>
<path d="M0 0 C0.8146875 0.00257812 1.629375 0.00515625 2.46875 0.0078125 C3.2834375 0.00523438 4.098125 0.00265625 4.9375 0 C6.96875 0.1328125 6.96875 0.1328125 7.96875 1.1328125 C8.00955783 3.13239614 8.01129356 5.13326504 7.96875 7.1328125 C4.33875 7.1328125 0.70875 7.1328125 -3.03125 7.1328125 C-3.07379356 5.13326504 -3.07205783 3.13239614 -3.03125 1.1328125 C-2.03125 0.1328125 -2.03125 0.1328125 0 0 Z " fill="#E4A767" transform="translate(125.03125,33.8671875)"/>
<path d="M0 0 C2.22111286 0.38295049 3.80380283 0.86920188 5.6875 2.125 C7.70167466 5.00239238 7.82072695 7.53405427 8 11 C7.36096883 12.67745682 6.69658363 14.34561387 6 16 C6.35993491 19.59934905 7.58062084 22.68811529 9 26 C8 27 8 27 6.15234375 27.09765625 C4.1015625 27.06510417 2.05078125 27.03255208 0 27 C-0.33 26.34 -0.66 25.68 -1 25 C1.31 25.33 3.62 25.66 6 26 C5.2265625 24.6078125 5.2265625 24.6078125 4.4375 23.1875 C2.55096173 18.86785631 3.07279262 15.13479158 3.67578125 10.55078125 C4.08406079 7.76720485 4.08406079 7.76720485 4 4 C3.34 3.67 2.68 3.34 2 3 C2 2.34 2 1.68 2 1 C1.34 0.67 0.68 0.34 0 0 Z " fill="#ECB76A" transform="translate(106,20)"/>
<path d="M0 0 C3.19137349 0.63252447 5.51237368 1.75603064 8.25 3.5 C8.95640625 3.9434375 9.6628125 4.386875 10.390625 4.84375 C11.18726563 5.41609375 11.18726563 5.41609375 12 6 C12 6.33 12 6.66 12 7 C10.02 7 8.04 7 6 7 C6.33 7.99 6.66 8.98 7 10 C6 11 6 11 3 12 C1.29115995 10.37660195 -0.37446717 8.70680947 -2 7 C-2 6.34 -2 5.68 -2 5 C-1.34 5 -0.68 5 0 5 C0 3.35 0 1.7 0 0 Z M0 5 C1 7 1 7 1 7 Z M1 7 C2 9 2 9 2 9 Z " fill="#F59D31" transform="translate(39,40)"/>
<path d="M0 0 C1.65 0 3.3 0 5 0 C5 0.99 5 1.98 5 3 C3.68 3 2.36 3 1 3 C1 3.66 1 4.32 1 5 C1.99 5.33 2.98 5.66 4 6 C3.36578125 6.50015625 2.7315625 7.0003125 2.078125 7.515625 C-0.61657911 10.73711337 -0.88355322 13.71145109 -1.25 17.75 C-1.32734375 18.44738281 -1.4046875 19.14476563 -1.484375 19.86328125 C-1.67183835 21.57388433 -1.83805503 23.28679271 -2 25 C-0.02 25 1.96 25 4 25 C4 23.02 4 21.04 4 19 C4.33 19 4.66 19 5 19 C5 21.31 5 23.62 5 26 C2.36 26 -0.28 26 -3 26 C-3.55353075 8.14350797 -3.55353075 8.14350797 0 0 Z " fill="#F0B45C" transform="translate(95,21)"/>
<path d="M0 0 C0 1.32 0 2.64 0 4 C-7.92 4.495 -7.92 4.495 -16 5 C-15.67 3.35 -15.34 1.7 -15 0 C-4.44191344 -1.33257403 -4.44191344 -1.33257403 0 0 Z " fill="#FCFB1A" transform="translate(89,51)"/>
<path d="M0 0 C1.58246707 -0.08153933 3.16616273 -0.13943557 4.75 -0.1875 C6.07257813 -0.23970703 6.07257813 -0.23970703 7.421875 -0.29296875 C10.47610949 0.05410335 11.80564299 0.88254802 14 3 C14 3.66 14 4.32 14 5 C13.443125 4.96519531 12.88625 4.93039063 12.3125 4.89453125 C6.45298962 4.686677 2.3699664 5.65674193 -3 8 C-3 7.01 -3 6.02 -3 5 C-2.34 5 -1.68 5 -1 5 C-0.67 3.35 -0.34 1.7 0 0 Z " fill="#FCBF19" transform="translate(65,31)"/>
<path d="M0 0 C0.77915771 0.00410889 1.55831543 0.00821777 2.36108398 0.01245117 C3.20735352 0.01438477 4.05362305 0.01631836 4.92553711 0.01831055 C5.81047852 0.03055664 6.69541992 0.04280273 7.60717773 0.05541992 C8.49598633 0.05606445 9.38479492 0.05670898 10.30053711 0.05737305 C16.90446676 0.10270895 16.90446676 0.10270895 18.04467773 1.24291992 C18.08560711 3.57589425 18.08709497 5.90997217 18.04467773 8.24291992 C16.06467773 8.24291992 14.08467773 8.24291992 12.04467773 8.24291992 C12.04467773 7.91291992 12.04467773 7.58291992 12.04467773 7.24291992 C13.69467773 7.24291992 15.34467773 7.24291992 17.04467773 7.24291992 C17.04467773 5.59291992 17.04467773 3.94291992 17.04467773 2.24291992 C10.77467773 2.24291992 4.50467773 2.24291992 -1.95532227 2.24291992 C-1.44551265 6.27670358 -1.44551265 6.27670358 1.10717773 7.49291992 C1.74655273 7.74041992 2.38592773 7.98791992 3.04467773 8.24291992 C0.73467773 8.24291992 -1.57532227 8.24291992 -3.95532227 8.24291992 C-4.08032227 5.36791992 -4.08032227 5.36791992 -3.95532227 2.24291992 C-1.95532227 0.24291992 -1.95532227 0.24291992 0 0 Z " fill="#ECC888" transform="translate(170.955322265625,18.757080078125)"/>
<path d="M0 0 C0.66 0.33 1.32 0.66 2 1 C1.01 2.485 1.01 2.485 0 4 C-0.24150773 6.51584891 -0.24150773 6.51584891 -0.125 9.1875 C-0.10695313 10.08855469 -0.08890625 10.98960938 -0.0703125 11.91796875 C-0.04710937 12.60503906 -0.02390625 13.29210938 0 14 C0.99 14.33 1.98 14.66 3 15 C-1.43076923 17.09230769 -1.43076923 17.09230769 -4.3125 16.625 C-5.1478125 16.315625 -5.1478125 16.315625 -6 16 C-5.34 16 -4.68 16 -4 16 C-4.20625 14.783125 -4.4125 13.56625 -4.625 12.3125 C-5.08089305 8.62627907 -4.88675387 6.30181927 -3 3 C-1.375 1.1875 -1.375 1.1875 0 0 Z " fill="#E26A4E" transform="translate(19,3)"/>
<path d="M0 0 C1.9375 0.6875 1.9375 0.6875 4 2 C4.75 4.625 4.75 4.625 5 7 C3.02 7.99 3.02 7.99 1 9 C1.639375 9.309375 2.27875 9.61875 2.9375 9.9375 C6.09768575 13.09768575 5.81900793 16.68333908 6 21 C5.67 21 5.34 21 5 21 C5 19.35 5 17.7 5 16 C4.34 16 3.68 16 3 16 C2.67 15.01 2.34 14.02 2 13 C0.35 12.67 -1.3 12.34 -3 12 C-3 11.34 -3 10.68 -3 10 C-4.32 9.67 -5.64 9.34 -7 9 C-3.73454239 7.11608215 -0.71888239 6.50712033 3 6 C3 5.01 3 4.02 3 3 C2.01 2.67 1.02 2.34 0 2 C0 1.34 0 0.68 0 0 Z " fill="#E7B472" transform="translate(156,21)"/>
<path d="M0 0 C0 0.66 0 1.32 0 2 C-1.98 2.33 -3.96 2.66 -6 3 C-5.71125 3.680625 -5.4225 4.36125 -5.125 5.0625 C-4.14139848 7.63079286 -3.36445388 10.18060887 -2.64453125 12.83203125 C-1.49008463 16.71516988 -0.07605885 20.51613296 1.29296875 24.328125 C2 27 2 27 1 30 C-1.79030183 25.81454726 -3.05199613 21.31668041 -4.625 16.5625 C-4.94984375 15.60794922 -5.2746875 14.65339844 -5.609375 13.66992188 C-5.91617187 12.74888672 -6.22296875 11.82785156 -6.5390625 10.87890625 C-6.81959473 10.0391626 -7.10012695 9.19941895 -7.38916016 8.33422852 C-8 6 -8 6 -8 2 C-2.25 0 -2.25 0 0 0 Z " fill="#E5673D" transform="translate(13,20)"/>
<path d="M0 0 C1.093125 0.0825 2.18625 0.165 3.3125 0.25 C2.3225 1.735 2.3225 1.735 1.3125 3.25 C2.3025 3.58 3.2925 3.91 4.3125 4.25 C2.83557692 11.88076923 2.83557692 11.88076923 0.1875 13.75 C-0.43125 13.915 -1.05 14.08 -1.6875 14.25 C-1.8125 7.5 -1.8125 7.5 -0.6875 5.25 C-2.0075 5.25 -3.3275 5.25 -4.6875 5.25 C-5.0175 5.91 -5.3475 6.57 -5.6875 7.25 C-6.6875 4.25 -6.6875 4.25 -5.6875 2.0625 C-3.6875 0.25 -3.6875 0.25 0 0 Z " fill="#E55535" transform="translate(24.6875,1.75)"/>
<path d="M0 0 C0.33 0 0.66 0 1 0 C1.72722699 5.18149229 2 9.68035751 2 15 C6.95 15.33 11.9 15.66 17 16 C17 14.35 17 12.7 17 11 C14.03 10.67 11.06 10.34 8 10 C8.33 9.01 8.66 8.02 9 7 C9 7.66 9 8.32 9 9 C9.63808594 8.98839844 10.27617187 8.97679687 10.93359375 8.96484375 C11.75988281 8.95582031 12.58617187 8.94679688 13.4375 8.9375 C14.26121094 8.92589844 15.08492188 8.91429687 15.93359375 8.90234375 C18 9 18 9 19 10 C19.04092937 12.33297433 19.04241723 14.66705225 19 17 C16.02077407 17.02683987 13.04178705 17.04676037 10.0625 17.0625 C8.78729492 17.07506836 8.78729492 17.07506836 7.48632812 17.08789062 C6.67744141 17.09111328 5.86855469 17.09433594 5.03515625 17.09765625 C4.2862915 17.10289307 3.53742676 17.10812988 2.76586914 17.11352539 C1 17 1 17 0 16 C-0.07319621 13.30345146 -0.09242537 10.63308542 -0.0625 7.9375 C-0.05798828 7.17888672 -0.05347656 6.42027344 -0.04882812 5.63867188 C-0.0370068 3.75908129 -0.01907078 1.87953101 0 0 Z " fill="#E6AB70" transform="translate(260,30)"/>
<path d="M0 0 C0.7734375 0.433125 0.7734375 0.433125 1.5625 0.875 C4.62356725 2.28780027 7.74944918 3.1248517 11 4 C10.34 5.98 9.68 7.96 9 10 C5.37 9.34 1.74 8.68 -2 8 C-1.34 7.34 -0.68 6.68 0 6 C0.16681109 2.91652174 0.16681109 2.91652174 0 0 Z " fill="#FD9E13" transform="translate(37,50)"/>
<path d="M0 0 C5.875 0.875 5.875 0.875 7 2 C7.14115161 4.67058851 7.04247107 7.32432238 7 10 C5.35 10.33 3.7 10.66 2 11 C0.80712589 7.12315913 0 4.08378077 0 0 Z " fill="#F94309" transform="translate(46,12)"/>
<path d="M0 0 C2.30816714 0.18067845 4.57893166 0.51997751 6.87109375 0.84375 C9.05346605 1.18638525 9.05346605 1.18638525 11 0 C10.67 1.32 10.34 2.64 10 4 C5.25 3.125 5.25 3.125 3 2 C2.01 2.495 2.01 2.495 1 3 C1.68059901 6.0250098 1.68059901 6.0250098 3.703125 7.2109375 C6.60699525 8.20852558 8.71189757 7.98667886 11.75 7.625 C12.73484375 7.51414062 13.7196875 7.40328125 14.734375 7.2890625 C15.48203125 7.19367187 16.2296875 7.09828125 17 7 C13.32114886 10.13784362 10.97765416 10.50360764 6.26171875 10.37109375 C2.72589341 9.7909497 0.74524144 8.2525058 -2 6 C-1.125 1.125 -1.125 1.125 0 0 Z " fill="#EDA067" transform="translate(143,38)"/>
<path d="M0 0 C0.66 0.33 1.32 0.66 2 1 C1.43623218 4.94637474 0.4640248 7.83196811 -2 11 C-4.6875 11.8125 -4.6875 11.8125 -7 12 C-7.66 10.68 -8.32 9.36 -9 8 C-8.01 8 -7.02 8 -6 8 C-6 7.01 -6 6.02 -6 5 C-5.34 4.67 -4.68 4.34 -4 4 C-3.34 3.01 -2.68 2.02 -2 1 C-1.34 1.33 -0.68 1.66 0 2 C0 1.34 0 0.68 0 0 Z " fill="#F6933A" transform="translate(219,33)"/>
<path d="M0 0 C-0.33 1.98 -0.66 3.96 -1 6 C-2.32 6 -3.64 6 -5 6 C-5.33 5.01 -5.66 4.02 -6 3 C-8.91652174 2.83318891 -8.91652174 2.83318891 -12 3 C-12.66 3.66 -13.32 4.32 -14 5 C-14.99 5 -15.98 5 -17 5 C-17.33 6.32 -17.66 7.64 -18 9 C-19.98 8.34 -21.96 7.68 -24 7 C-21.03312999 5.35173889 -18.34373475 4.55728913 -15 4 C-15 3.34 -15 2.68 -15 2 C-4.63636364 -2.31818182 -4.63636364 -2.31818182 0 0 Z " fill="#EF6426" transform="translate(37,14)"/>
<path d="M0 0 C11.90900701 -0.56312292 11.90900701 -0.56312292 16 3 C18 6 18 6 17.625 8.6875 C17.315625 9.8321875 17.315625 9.8321875 17 11 C16.01 11 15.02 11 14 11 C13.34 10.01 12.68 9.02 12 8 C8.44327821 6.7811879 8.44327821 6.7811879 5 6 C5 5.67 5 5.34 5 5 C7.97 5.33 10.94 5.66 14 6 C14 5.34 14 4.68 14 4 C10.88089144 2.20724134 8.32317572 1.65709282 4.75 1.375 C3.85796875 1.30023437 2.9659375 1.22546875 2.046875 1.1484375 C1.03367187 1.07496094 1.03367187 1.07496094 0 1 C0 0.67 0 0.34 0 0 Z " fill="#F4E066" transform="translate(65,30)"/>
<path d="M0 0 C0.33 0 0.66 0 1 0 C1.42397033 4.23970328 1.43792242 6.98342177 -1.25 10.3125 C-4.82358016 13.80486243 -7.36299538 15.28612103 -12.375 15.3125 C-16.56565114 15.20185575 -19.53334111 14.51332769 -23 12 C-23.875 9.3125 -23.875 9.3125 -24 7 C-23.49210938 7.433125 -22.98421875 7.86625 -22.4609375 8.3125 C-18.11884817 11.85934861 -18.11884817 11.85934861 -12.875 13.5625 C-9.19010987 12.84154324 -7.05914567 12.26110767 -4 10 C-2.31623589 6.77278546 -1.10479281 3.46385039 0 0 Z " fill="#EFA262" transform="translate(221,33)"/>
<path d="M0 0 C6.44444444 1.44444444 6.44444444 1.44444444 8 3 C8.07205511 4.68608966 8.08386068 6.37500659 8.0625 8.0625 C8.05347656 8.98160156 8.04445312 9.90070312 8.03515625 10.84765625 C8.02355469 11.55792969 8.01195312 12.26820312 8 13 C7.34 13 6.68 13 6 13 C6.04125 12.071875 6.0825 11.14375 6.125 10.1875 C6.27136339 6.84190281 6.27136339 6.84190281 4 4 C1.5 3.58333333 1.5 3.58333333 -1 4 C-3.5654594 6.5654594 -3.54046087 8.47686668 -4 12 C-4.66 12 -5.32 12 -6 12 C-6 9.69 -6 7.38 -6 5 C-5.01 4.67 -4.02 4.34 -3 4 C-3 3.34 -3 2.68 -3 2 C-2.01 1.34 -1.02 0.68 0 0 Z " fill="#F0BC73" transform="translate(207,25)"/>
<path d="M0 0 C-0.9075 0.350625 -1.815 0.70125 -2.75 1.0625 C-6.91857529 3.54761219 -7.89152626 5.70195737 -10 10 C-9.34 10 -8.68 10 -8 10 C-7.67 11.32 -7.34 12.64 -7 14 C-5.2984375 14.433125 -5.2984375 14.433125 -3.5625 14.875 C-2.386875 15.24625 -1.21125 15.6175 0 16 C0.33 16.66 0.66 17.32 1 18 C-1.64 18 -4.28 18 -7 18 C-7.433125 17.1028125 -7.433125 17.1028125 -7.875 16.1875 C-9.04742026 13.80672208 -9.04742026 13.80672208 -11 11 C-10.85679006 7.06172672 -10.59129356 4.74897184 -8.125 1.625 C-5.02884042 -0.74265145 -3.75261318 -1.25087106 0 0 Z " fill="#E8B26F" transform="translate(152,20)"/>
<path d="M0 0 C3.90625 2.6015625 3.90625 2.6015625 4.75 6.1875 C4.8325 7.115625 4.915 8.04375 5 9 C5.36738281 8.51917969 5.73476563 8.03835937 6.11328125 7.54296875 C8.74840443 5.38795083 10.82505636 5.49327654 14.1875 5.3125 C15.27417969 5.24675781 16.36085938 5.18101563 17.48046875 5.11328125 C18.31191406 5.07589844 19.14335938 5.03851563 20 5 C17.15819378 6.89453748 14.68435185 8.00192814 11.5 9.1875 C10.5409375 9.55230469 9.581875 9.91710938 8.59375 10.29296875 C6 11 6 11 3 10 C2.05078125 7.71484375 2.05078125 7.71484375 1.3125 4.9375 C1.06113281 4.01839844 0.80976563 3.09929688 0.55078125 2.15234375 C0.36902344 1.44207031 0.18726563 0.73179688 0 0 Z " fill="#EC8A40" transform="translate(15,54)"/>
<path d="M0 0 C0.33 0.66 0.66 1.32 1 2 C1.99 2.33 2.98 2.66 4 3 C5.64820195 5.60242414 6 6.86248779 6 10 C3.69 9.67 1.38 9.34 -1 9 C-1 9.66 -1 10.32 -1 11 C-2.98 11 -4.96 11 -7 11 C-7 10.67 -7 10.34 -7 10 C-5.35 10 -3.7 10 -2 10 C-1.93941406 9.36191406 -1.87882812 8.72382812 -1.81640625 8.06640625 C-1.73261719 7.24011719 -1.64882813 6.41382813 -1.5625 5.5625 C-1.48128906 4.73878906 -1.40007813 3.91507813 -1.31640625 3.06640625 C-1 1 -1 1 0 0 Z " fill="#FCC620" transform="translate(57,52)"/>
<path d="M0 0 C3.3 0.66 6.6 1.32 10 2 C9.67 3.32 9.34 4.64 9 6 C7.39620659 6.05416188 5.79188594 6.09286638 4.1875 6.125 C3.29417969 6.14820312 2.40085937 6.17140625 1.48046875 6.1953125 C-1 6 -1 6 -4 4 C-2.68 3.67 -1.36 3.34 0 3 C0 2.01 0 1.02 0 0 Z " fill="#FAF146" transform="translate(66,61)"/>
<path d="M0 0 C0.928125 0.165 1.85625 0.33 2.8125 0.5 C5.74559187 0.96009284 7.25741623 0.94935592 10 0 C10 0.99 10 1.98 10 3 C8.02 3.33 6.04 3.66 4 4 C3.67 4.99 3.34 5.98 3 7 C0.9375 7.6875 0.9375 7.6875 -1 8 C-1 9.65 -1 11.3 -1 13 C0.98 13.495 0.98 13.495 3 14 C1.35 14 -0.3 14 -2 14 C-1.85970581 11.8537974 -1.71261836 9.70803782 -1.5625 7.5625 C-1.48128906 6.36753906 -1.40007812 5.17257813 -1.31640625 3.94140625 C-1 1 -1 1 0 0 Z " fill="#F59F40" transform="translate(264,32)"/>
<path d="M0 0 C0.99 0.33 1.98 0.66 3 1 C3 2.32 3 3.64 3 5 C-3.36607809 6.66517133 -7.79892075 7.42650927 -14 5 C-14 4.67 -14 4.34 -14 4 C-11.69 4 -9.38 4 -7 4 C-7 3.34 -7 2.68 -7 2 C-4.69 2.33 -2.38 2.66 0 3 C0 2.01 0 1.02 0 0 Z " fill="#F9D84A" transform="translate(63,59)"/>
<path d="M0 0 C2.875 1.375 2.875 1.375 5 3 C5 3.99 5 4.98 5 6 C3.68 5.67 2.36 5.34 1 5 C1.33 4.67 1.66 4.34 2 4 C-0.80905477 2.01025287 -2.87286664 1.8988988 -6.1875 2.25 C-7.445625 2.4975 -8.70375 2.745 -10 3 C-10.33 3.66 -10.66 4.32 -11 5 C-10.34 5 -9.68 5 -9 5 C-9 5.66 -9 6.32 -9 7 C-10.65 6.67 -12.3 6.34 -14 6 C-12.94728122 2.94711553 -11.99648603 1.99768398 -9.25 0.1875 C-5.50156103 -1.18212193 -3.79357813 -1.130002 0 0 Z " fill="#F4D55E" transform="translate(74,40)"/>
<path d="M0 0 C2.25056722 0.11433363 4.50046674 0.24186436 6.75 0.375 C8.62945312 0.47941406 8.62945312 0.47941406 10.546875 0.5859375 C13.60998121 0.95323304 15.41974266 1.39711286 18 3 C14.91111478 5.05925681 14.29064073 5.2390374 10.8125 5.125 C8.9253125 5.063125 8.9253125 5.063125 7 5 C6.67 4.34 6.34 3.68 6 3 C4.02111039 2.27306096 2.02045442 1.60183749 0 1 C0 0.67 0 0.34 0 0 Z " fill="#F9AB15" transform="translate(44,36)"/>
<path d="M0 0 C1.32 0.66 2.64 1.32 4 2 C-0.62 2 -5.24 2 -10 2 C-10.33 3.32 -10.66 4.64 -11 6 C-11.99 5.67 -12.98 5.34 -14 5 C-14.99 8.465 -14.99 8.465 -16 12 C-16.33 12 -16.66 12 -17 12 C-17.40103505 7.90944253 -17.37797038 5.63445029 -15.25 2.0625 C-10.39609902 -1.01786024 -5.60948856 -0.73301432 0 0 Z " fill="#EC9646" transform="translate(54,32)"/>
<path d="M0 0 C1.32 0 2.64 0 4 0 C4 0.66 4 1.32 4 2 C4.99 2 5.98 2 7 2 C7.33 3.98 7.66 5.96 8 8 C7.38125 8.12375 6.7625 8.2475 6.125 8.375 C3.80879168 8.87197356 3.80879168 8.87197356 2 11 C1.93941406 10.37351562 1.87882813 9.74703125 1.81640625 9.1015625 C1.73261719 8.28429688 1.64882812 7.46703125 1.5625 6.625 C1.48128906 5.81289063 1.40007812 5.00078125 1.31640625 4.1640625 C1.10909886 1.95727195 1.10909886 1.95727195 0 0 Z " fill="#F6B04C" transform="translate(213,26)"/>
<path d="M0 0 C0.59167969 0.13277344 1.18335938 0.26554687 1.79296875 0.40234375 C5.85446525 1.31005178 9.91374171 2.2091113 14 3 C13 6 13 6 10.9375 7.1875 C10.298125 7.455625 9.65875 7.72375 9 8 C9 7.34 9 6.68 9 6 C7.6078125 5.566875 7.6078125 5.566875 6.1875 5.125 C3 4 3 4 0 2 C0 1.34 0 0.68 0 0 Z " fill="#F5A93B" transform="translate(55,22)"/>
<path d="M0 0 C1.32 0 2.64 0 4 0 C3 2 3 2 0.953125 3.703125 C-1.68992107 6.81134717 -1.41065553 8.73361172 -1.25 12.75 C-1.21390625 13.92046875 -1.1778125 15.0909375 -1.140625 16.296875 C-1.09421875 17.18890625 -1.0478125 18.0809375 -1 19 C-3 18 -3 18 -4 15 C-4.5571377 10.2049624 -4.40293928 6.82026924 -2.25 2.4375 C-1.5075 1.633125 -0.765 0.82875 0 0 Z " fill="#F1BE75" transform="translate(198,23)"/>
<path d="M0 0 C0.66 0.66 1.32 1.32 2 2 C1.45652174 8.08695652 1.45652174 8.08695652 0 11 C0.474375 11.78375 0.94875 12.5675 1.4375 13.375 C3 16 3 16 3 20 C0.03 20 -2.94 20 -6 20 C-6 19.67 -6 19.34 -6 19 C-3.69 19 -1.38 19 1 19 C0.2575 17.700625 0.2575 17.700625 -0.5 16.375 C-2.0477761 12.89250377 -2.26802896 10.75240542 -2 7 C-1.34 7 -0.68 7 0 7 C0 4.69 0 2.38 0 0 Z " fill="#EFB779" transform="translate(250,27)"/>
<path d="M0 0 C0.33 0 0.66 0 1 0 C1.33 2.97 1.66 5.94 2 9 C-1.3 9.66 -4.6 10.32 -8 11 C-8.33 7.7 -8.66 4.4 -9 1 C-8.01 1.33 -7.02 1.66 -6 2 C-5.67 3.98 -5.34 5.96 -5 8 C-3.68 8 -2.36 8 -1 8 C-0.67 5.36 -0.34 2.72 0 0 Z " fill="#FB6E1E" transform="translate(53,14)"/>
<path d="M0 0 C-2.3125 2.5 -2.3125 2.5 -5 5 C-5.99 5 -6.98 5 -8 5 C-8.33 5.99 -8.66 6.98 -9 8 C-9.66 8 -10.32 8 -11 8 C-11.66 6.68 -12.32 5.36 -13 4 C-12.01 3.67 -11.02 3.34 -10 3 C-9.67 2.34 -9.34 1.68 -9 1 C-3.6407767 -1.21359223 -3.6407767 -1.21359223 0 0 Z " fill="#FB460C" transform="translate(29,18)"/>
<path d="M0 0 C2.05078125 0.03255208 4.1015625 0.06510417 6.15234375 0.09765625 C6.15234375 1.41765625 6.15234375 2.73765625 6.15234375 4.09765625 C4.50234375 4.09765625 2.85234375 4.09765625 1.15234375 4.09765625 C0.82234375 5.08765625 0.49234375 6.07765625 0.15234375 7.09765625 C-0.50765625 7.09765625 -1.16765625 7.09765625 -1.84765625 7.09765625 C-2.22898924 5.10625065 -2.56091207 3.10486548 -2.84765625 1.09765625 C-1.84765625 0.09765625 -1.84765625 0.09765625 0 0 Z " fill="#FD6E07" transform="translate(21.84765625,55.90234375)"/>
<path d="M0 0 C1.09570312 0.00902344 2.19140625 0.01804687 3.3203125 0.02734375 C4.16335937 0.03894531 5.00640625 0.05054687 5.875 0.0625 C2.97407498 1.99645001 1.97825263 2.36381941 -1.3125 2.6875 C-2.570625 2.81125 -3.82875 2.935 -5.125 3.0625 C-5.785 5.7025 -6.445 8.3425 -7.125 11.0625 C-7.455 11.0625 -7.785 11.0625 -8.125 11.0625 C-8.125 7.7625 -8.125 4.4625 -8.125 1.0625 C-5.36047967 -0.31976016 -3.0788637 -0.03275387 0 0 Z " fill="#F8CC83" transform="translate(100.125,18.9375)"/>
<path d="M0 0 C1.98 0.495 1.98 0.495 4 1 C4 1.66 4 2.32 4 3 C5.65 3 7.3 3 9 3 C8.67 3.99 8.34 4.98 8 6 C8 5.34 8 4.68 8 4 C5.55519921 4.18828772 5.55519921 4.18828772 3 5 C1.75825204 6.9001177 1.75825204 6.9001177 1 9 C0.34 9.66 -0.32 10.32 -1 11 C-0.67 7.37 -0.34 3.74 0 0 Z " fill="#F7A346" transform="translate(233,30)"/>
<path d="M0 0 C1.485 0.2475 1.485 0.2475 3 0.5 C7.02732942 1.08474517 10.93474623 1.07132024 15 1 C15 1.66 15 2.32 15 3 C7.15384615 5.61538462 7.15384615 5.61538462 3 4 C1.1875 1.9375 1.1875 1.9375 0 0 Z " fill="#FDEB48" transform="translate(65,55)"/>
<path d="M0 0 C0.99 0.33 1.98 0.66 3 1 C3.12375 1.721875 3.2475 2.44375 3.375 3.1875 C3.9904931 5.95721894 4.88444374 8.3970354 6 11 C5 12 5 12 3.15234375 12.09765625 C1.1015625 12.06510417 -0.94921875 12.03255208 -3 12 C-3.33 11.34 -3.66 10.68 -4 10 C-1.69 10.33 0.62 10.66 3 11 C2.505 9.9275 2.01 8.855 1.5 7.75 C0.11346089 4.74583192 0 3.54065105 0 0 Z " fill="#E7A269" transform="translate(109,35)"/>
<path d="M0 0 C7.625 0.875 7.625 0.875 11 2 C11 1.34 11 0.68 11 0 C11.66 0 12.32 0 13 0 C13.66 1.65 14.32 3.3 15 5 C13.54077307 4.88590407 12.08259402 4.75834456 10.625 4.625 C9.40683594 4.52058594 9.40683594 4.52058594 8.1640625 4.4140625 C6 4 6 4 4 2 C2.68252676 1.30251417 1.35085807 0.63040043 0 0 Z " fill="#F3AF38" transform="translate(35,58)"/>
<path d="M0 0 C-1.86691174 1.01501998 -3.74395344 2.01142079 -5.625 3 C-6.66914062 3.556875 -7.71328125 4.11375 -8.7890625 4.6875 C-12.14146595 6.0578255 -14.41954936 6.2580505 -18 6 C-18.33 5.34 -18.66 4.68 -19 4 C-17.5459375 3.87625 -17.5459375 3.87625 -16.0625 3.75 C-11.9830911 3.20164768 -8.66236316 1.59105824 -5.015625 -0.2578125 C-3 -1 -3 -1 0 0 Z " fill="#F7BE4F" transform="translate(71,37)"/>
<path d="M0 0 C0.99 0.33 1.98 0.66 3 1 C3.36923077 6.41538462 3.36923077 6.41538462 1.5 9.375 C1.005 9.91125 0.51 10.4475 0 11 C0 10.01 0 9.02 0 8 C-0.66 8 -1.32 8 -2 8 C-1.125 1.125 -1.125 1.125 0 0 Z " fill="#F6AB47" transform="translate(108,27)"/>
<path d="M0 0 C0.33 0.66 0.66 1.32 1 2 C4.02934491 2.65772428 4.02934491 2.65772428 7 3 C7.33 3.99 7.66 4.98 8 6 C0.61538462 6.49230769 0.61538462 6.49230769 -2.5 4 C-2.995 3.34 -3.49 2.68 -4 2 C-2.68 2.33 -1.36 2.66 0 3 C0 2.01 0 1.02 0 0 Z " fill="#FCA72B" transform="translate(43,48)"/>
<path d="M0 0 C0 2.97 0 5.94 0 9 C-1.32 9 -2.64 9 -4 9 C-4 6.36 -4 3.72 -4 1 C-1 0 -1 0 0 0 Z " fill="#F4913A" transform="translate(180,37)"/>
<path d="M0 0 C2.97 0 5.94 0 9 0 C9.042721 1.66611905 9.04063832 3.33382885 9 5 C8 6 8 6 4.4375 6.0625 C3.303125 6.041875 2.16875 6.02125 1 6 C0.67 4.02 0.34 2.04 0 0 Z M2 1 C2 2.32 2 3.64 2 5 C3.65 4.67 5.3 4.34 7 4 C6.67 3.01 6.34 2.02 6 1 C4.68 1 3.36 1 2 1 Z " fill="#F2B76D" transform="translate(237,26)"/>
<path d="M0 0 C2 2 2 2 2.125 5.125 C2.08375 6.07375 2.0425 7.0225 2 8 C0.35 8 -1.3 8 -3 8 C-2.74438677 5.6568787 -2.40729228 3.32156597 -2 1 C-1.34 0.67 -0.68 0.34 0 0 Z " fill="#F19238" transform="translate(235,38)"/>
<path d="M0 0 C0 2.97 0 5.94 0 9 C-1.32 9 -2.64 9 -4 9 C-4 6.36 -4 3.72 -4 1 C-1 0 -1 0 0 0 Z " fill="#F69236" transform="translate(98,36)"/>
<path d="M0 0 C0.66 0 1.32 0 2 0 C2 1.65 2 3.3 2 5 C2.99 5.33 3.98 5.66 5 6 C0.56923077 8.09230769 0.56923077 8.09230769 -2.3125 7.625 C-2.869375 7.41875 -3.42625 7.2125 -4 7 C-3.34 7 -2.68 7 -2 7 C-2 5.35 -2 3.7 -2 2 C-1.34 2 -0.68 2 0 2 C0 1.34 0 0.68 0 0 Z " fill="#E36744" transform="translate(17,12)"/>
<path d="M0 0 C2.375 0.25 2.375 0.25 5 1 C7.09862498 3.89810116 7 5.28378861 7 9 C6.01 8.67 5.02 8.34 4 8 C3.67 6.35 3.34 4.7 3 3 C1.68 2.67 0.36 2.34 -1 2 C-0.67 1.34 -0.34 0.68 0 0 Z " fill="#F56D40" transform="translate(26,3)"/>
<path d="M0 0 C0 1.32 0 2.64 0 4 C-2.97 4 -5.94 4 -9 4 C-9 3.67 -9 3.34 -9 3 C-7.35 3 -5.7 3 -4 3 C-4 2.34 -4 1.68 -4 1 C-6.31 1 -8.62 1 -11 1 C-11 0.67 -11 0.34 -11 0 C-6.98195309 -0.84098656 -3.98196457 -1.05404945 0 0 Z " fill="#FDF837" transform="translate(89,51)"/>
<path d="M0 0 C1.32 0.33 2.64 0.66 4 1 C4 3.31 4 5.62 4 8 C2.68 8 1.36 8 0 8 C0 5.36 0 2.72 0 0 Z " fill="#F5AE4C" transform="translate(176,26)"/>
<path d="M0 0 C-0.78697325 3.41021743 -1.87119943 6.68885166 -3 10 C-4.64826111 7.03312999 -5.44271087 4.34373475 -6 1 C-3 0 -3 0 0 0 Z " fill="#FA3506" transform="translate(13,22)"/>
<path d="M0 0 C0.99 0 1.98 0 3 0 C3 2.31 3 4.62 3 7 C1.02 7.99 1.02 7.99 -1 9 C-1.125 2.25 -1.125 2.25 0 0 Z " fill="#DD6F4F" transform="translate(24,7)"/>
<path d="M0 0 C0.103125 0.639375 0.20625 1.27875 0.3125 1.9375 C0.539375 2.618125 0.76625 3.29875 1 4 C1.99 4.33 2.98 4.66 4 5 C4.33 5.99 4.66 6.98 5 8 C2.625 8.1875 2.625 8.1875 0 8 C-2 5 -2 5 -1.6875 2.875 C-1 1 -1 1 0 0 Z " fill="#F69135" transform="translate(245,37)"/>
<path d="M0 0 C0 0.66 0 1.32 0 2 C-0.66 2 -1.32 2 -2 2 C-2 2.66 -2 3.32 -2 4 C-5.96 3.67 -9.92 3.34 -14 3 C-14 2.67 -14 2.34 -14 2 C-4.58997722 -0.29612756 -4.58997722 -0.29612756 0 0 Z " fill="#FAB834" transform="translate(64,34)"/>
<path d="M0 0 C0 0.66 0 1.32 0 2 C-1.98 2.33 -3.96 2.66 -6 3 C-5.34 5.31 -4.68 7.62 -4 10 C-4.99 9.67 -5.98 9.34 -7 9 C-7.33 6.69 -7.66 4.38 -8 2 C-2.25 0 -2.25 0 0 0 Z " fill="#DA4C30" transform="translate(13,20)"/>
<path d="M0 0 C1.9375 0.6875 1.9375 0.6875 4 2 C4.75 4.625 4.75 4.625 5 7 C3.02 7.66 1.04 8.32 -1 9 C-1.66 8.34 -2.32 7.68 -3 7 C-1.02 6.67 0.96 6.34 3 6 C3 5.01 3 4.02 3 3 C2.01 2.67 1.02 2.34 0 2 C0 1.34 0 0.68 0 0 Z " fill="#E8BF7B" transform="translate(156,21)"/>
<path d="M0 0 C2.31 0 4.62 0 7 0 C6.34 2.64 5.68 5.28 5 8 C4.01 7.34 3.02 6.68 2 6 C2.33 4.35 2.66 2.7 3 1 C2.01 1.33 1.02 1.66 0 2 C0 1.34 0 0.68 0 0 Z " fill="#FABC51" transform="translate(263,22)"/>
<path d="M0 0 C-2.70915709 0.90305236 -5.17042171 1.63723355 -8 2 C-8.66 1.34 -9.32 0.68 -10 0 C-12.06874034 -0.6425235 -12.06874034 -0.6425235 -14 -1 C-8.26942747 -3.72202195 -5.50031809 -2.46565983 0 0 Z " fill="#F9C35E" transform="translate(217,23)"/>
<path d="M0 0 C2.88437779 1.29299694 4.87219421 2.65941363 7 5 C6.01 5.495 6.01 5.495 5 6 C4.67 6.33 4.34 6.66 4 7 C1.9375 6.5625 1.9375 6.5625 0 6 C0 4.02 0 2.04 0 0 Z " fill="#F9910B" transform="translate(37,50)"/>
<path d="M0 0 C2.475 0.495 2.475 0.495 5 1 C5.66 3.31 6.32 5.62 7 8 C6.01 8.66 5.02 9.32 4 10 C3.67 7.36 3.34 4.72 3 2 C2.01 1.67 1.02 1.34 0 1 C0 0.67 0 0.34 0 0 Z " fill="#F5B82C" transform="translate(50,45)"/>
<path d="M0 0 C0.66 0.33 1.32 0.66 2 1 C1.44271087 4.34373475 0.64826111 7.03312999 -1 10 C-1.33 9.34 -1.66 8.68 -2 8 C-1.67 7.01 -1.34 6.02 -1 5 C-1.99 4.67 -2.98 4.34 -4 4 C-3.34 3.01 -2.68 2.02 -2 1 C-1.34 1.33 -0.68 1.66 0 2 C0 1.34 0 0.68 0 0 Z " fill="#F5A044" transform="translate(219,33)"/>
<path d="M0 0 C0.33 0.99 0.66 1.98 1 3 C2.98 2.67 4.96 2.34 7 2 C6.34 2.66 5.68 3.32 5 4 C4.01 4 3.02 4 2 4 C1.67 4.66 1.34 5.32 1 6 C0.01 5.67 -0.98 5.34 -2 5 C-4.14255793 5.38932856 -4.14255793 5.38932856 -6 6 C-4.68 4.68 -3.36 3.36 -2 2 C-1.34 2.33 -0.68 2.66 0 3 C0 2.01 0 1.02 0 0 Z " fill="#E06D39" transform="translate(33,9)"/>
<path d="M0 0 C0.66 0.66 1.32 1.32 2 2 C1.625 4.625 1.625 4.625 1 7 C-2.3 7 -5.6 7 -9 7 C-9 6.34 -9 5.68 -9 5 C-6.03 5 -3.06 5 0 5 C0 3.35 0 1.7 0 0 Z " fill="#F8F478" transform="translate(89,50)"/>
<path d="M0 0 C0.93972656 0.12568359 0.93972656 0.12568359 1.8984375 0.25390625 C3.12433594 0.40666016 3.12433594 0.40666016 4.375 0.5625 C5.59316406 0.71912109 5.59316406 0.71912109 6.8359375 0.87890625 C9.04899186 1.18237328 9.04899186 1.18237328 11 0 C10.67 1.32 10.34 2.64 10 4 C5 3 5 3 0 2 C0 1.34 0 0.68 0 0 Z " fill="#F3AE5E" transform="translate(143,38)"/>
<path d="M0 0 C3.37462715 0.54723683 5.08235 1.0549 8 3 C8 3.66 8 4.32 8 5 C4.37 5 0.74 5 -3 5 C-2.67 4.34 -2.34 3.68 -2 3 C-0.35 3 1.3 3 3 3 C3 2.34 3 1.68 3 1 C2.01 0.67 1.02 0.34 0 0 Z " fill="#FCDA2E" transform="translate(71,31)"/>
<path d="M0 0 C1.65 0.33 3.3 0.66 5 1 C5 2.98 5 4.96 5 7 C2.69 6.67 0.38 6.34 -2 6 C-1.67 5.34 -1.34 4.68 -1 4 C0.98 4.495 0.98 4.495 3 5 C3 4.01 3 3.02 3 2 C2.01 2 1.02 2 0 2 C0 1.34 0 0.68 0 0 Z " fill="#ECB167" transform="translate(102,26)"/>
<path d="M0 0 C0.53625 0.350625 1.0725 0.70125 1.625 1.0625 C4.73274763 2.28924249 6.79431703 1.72856431 10 1 C10 1.99 10 2.98 10 4 C3.375 5.25 3.375 5.25 0 3 C0 2.01 0 1.02 0 0 Z " fill="#EFA764" transform="translate(203,37)"/>
<path d="M0 0 C0.33 0 0.66 0 1 0 C1.602537 6.02536998 1.602537 6.02536998 -0.11328125 8.80078125 C-1.34621853 10.25599455 -2.66808933 11.63479157 -4 13 C-4.66 12.67 -5.32 12.34 -6 12 C-5.53980469 11.60167969 -5.07960937 11.20335937 -4.60546875 10.79296875 C-2.7325678 8.70133484 -2.12610698 6.98578008 -1.3125 4.3125 C-1.06113281 3.50425781 -0.80976563 2.69601563 -0.55078125 1.86328125 C-0.36902344 1.24839844 -0.18726563 0.63351563 0 0 Z " fill="#F3B06C" transform="translate(221,33)"/>
<path d="M0 0 C11.70615034 -0.55353075 11.70615034 -0.55353075 16 3 C15.67 3.66 15.34 4.32 15 5 C14.38125 4.525625 13.7625 4.05125 13.125 3.5625 C8.83894324 1.41947162 4.73399291 1.26657436 0 1 C0 0.67 0 0.34 0 0 Z " fill="#F1CF56" transform="translate(65,30)"/>
<path d="M0 0 C0.99 0.33 1.98 0.66 3 1 C2.01 1.495 2.01 1.495 1 2 C1 3.32 1 4.64 1 6 C2.32 6.66 3.64 7.32 5 8 C2.69 8 0.38 8 -2 8 C-2.125 5.125 -2.125 5.125 -2 2 C-1.34 1.34 -0.68 0.68 0 0 Z " fill="#E6C282" transform="translate(169,19)"/>
<path d="M0 0 C2.55028983 1.27514492 2.93081711 2.40341297 4 5 C4 5.99 4 6.98 4 8 C2.68 8 1.36 8 0 8 C0 5.36 0 2.72 0 0 Z " fill="#FCD61D" transform="translate(59,54)"/>
<path d="M0 0 C2.475 0.495 2.475 0.495 5 1 C5.33 2.32 5.66 3.64 6 5 C4.35 4.67 2.7 4.34 1 4 C0.67 2.68 0.34 1.36 0 0 Z " fill="#F28E39" transform="translate(106,41)"/>
<path d="M0 0 C-0.928125 0.4125 -1.85625 0.825 -2.8125 1.25 C-5.88054681 2.93441786 -7.19040465 4.08454083 -9 7 C-9.66 6.67 -10.32 6.34 -11 6 C-9.47947256 2.95894512 -8.51878821 1.28533352 -5.5 -0.375 C-3 -1 -3 -1 0 0 Z " fill="#F4CC92" transform="translate(152,20)"/>
<path d="M0 0 C0.66 0.33 1.32 0.66 2 1 C1.67 2.98 1.34 4.96 1 7 C-0.32 7 -1.64 7 -3 7 C-3.33 5.68 -3.66 4.36 -4 3 C-3.01 2.67 -2.02 2.34 -1 2 C-0.67 1.34 -0.34 0.68 0 0 Z " fill="#FB661B" transform="translate(35,13)"/>
<path d="M0 0 C1.98 0 3.96 0 6 0 C5.67 1.32 5.34 2.64 5 4 C3.35 4 1.7 4 0 4 C0 2.68 0 1.36 0 0 Z " fill="#F9F46C" transform="translate(70,63)"/>
<path d="M0 0 C1.9375 0.375 1.9375 0.375 4 1 C4.33 1.66 4.66 2.32 5 3 C4.01 3 3.02 3 2 3 C2.33 4.98 2.66 6.96 3 9 C0.90250005 6.64031256 0.03094296 5.45383006 -0.1875 2.25 C-0.125625 1.5075 -0.06375 0.765 0 0 Z " fill="#EB9D50" transform="translate(39,40)"/>
<path d="M0 0 C0.99 0.33 1.98 0.66 3 1 C3 2.32 3 3.64 3 5 C1.68 5.33 0.36 5.66 -1 6 C-1 5.34 -1 4.68 -1 4 C-1.99 3.67 -2.98 3.34 -4 3 C-2.68 3 -1.36 3 0 3 C0 2.01 0 1.02 0 0 Z " fill="#FAE133" transform="translate(63,59)"/>
<path d="M0 0 C2.97 0 5.94 0 9 0 C6.6875 2.0625 6.6875 2.0625 4 4 C3.01 3.67 2.02 3.34 1 3 C0.67 2.01 0.34 1.02 0 0 Z " fill="#FBD526" transform="translate(62,51)"/>
<path d="M0 0 C-1.1446875 0.6496875 -1.1446875 0.6496875 -2.3125 1.3125 C-4.58093768 2.73686785 -6.2199723 4.03260097 -8 6 C-8 4.35 -8 2.7 -8 1 C-3.375 -1.125 -3.375 -1.125 0 0 Z " fill="#FC740D" transform="translate(44,32)"/>
<path d="M0 0 C4.29 0 8.58 0 13 0 C13 0.33 13 0.66 13 1 C11.96939453 1.05607422 11.96939453 1.05607422 10.91796875 1.11328125 C10.01691406 1.17902344 9.11585938 1.24476562 8.1875 1.3125 C7.29417969 1.37050781 6.40085938 1.42851562 5.48046875 1.48828125 C2.69396 2.06313581 1.75864246 2.8206856 0 5 C0 3.35 0 1.7 0 0 Z " fill="#F8C45F" transform="translate(232,21)"/>
<path d="M0 0 C2.31 0.66 4.62 1.32 7 2 C6.01 3.485 6.01 3.485 5 5 C3.0625 4.1875 3.0625 4.1875 1 3 C0.67 2.01 0.34 1.02 0 0 Z " fill="#FC9C10" transform="translate(44,46)"/>
<path d="M0 0 C2 2 2 2 2.125 5.125 C2.08375 6.07375 2.0425 7.0225 2 8 C1.01 7.67 0.02 7.34 -1 7 C-1.8125 5.125 -1.8125 5.125 -2 3 C-1.34 2.01 -0.68 1.02 0 0 Z " fill="#F65F27" transform="translate(15,47)"/>
<path d="M0 0 C0.33 0 0.66 0 1 0 C1.06058594 0.61488281 1.12117188 1.22976562 1.18359375 1.86328125 C1.26738281 2.67152344 1.35117187 3.47976562 1.4375 4.3125 C1.51871094 5.11300781 1.59992187 5.91351563 1.68359375 6.73828125 C1.95265693 9.16087179 1.95265693 9.16087179 3 12 C2.01 12 1.02 12 0 12 C-1.03159626 8.90521121 -0.97482862 7.47368607 -0.5625 4.3125 C-0.46066406 3.50425781 -0.35882813 2.69601563 -0.25390625 1.86328125 C-0.17011719 1.24839844 -0.08632813 0.63351563 0 0 Z " fill="#FB8726" transform="translate(36,38)"/>
<path d="M0 0 C2.97 0.33 5.94 0.66 9 1 C9.33 1.99 9.66 2.98 10 4 C6.58978257 3.21302675 3.31114834 2.12880057 0 1 C0 0.67 0 0.34 0 0 Z " fill="#F8991A" transform="translate(44,36)"/>
<path d="M0 0 C-0.66 0.66 -1.32 1.32 -2 2 C-1.67 2.66 -1.34 3.32 -1 4 C-1.66 4 -2.32 4 -3 4 C-3.33 4.66 -3.66 5.32 -4 6 C-4.103125 5.360625 -4.20625 4.72125 -4.3125 4.0625 C-4.539375 3.381875 -4.76625 2.70125 -5 2 C-5.99 1.67 -6.98 1.34 -8 1 C-5.29120665 -0.35439668 -2.99066732 -0.06501451 0 0 Z " fill="#D75B36" transform="translate(36,2)"/>
<path d="M0 0 C1.32 0 2.64 0 4 0 C3.34 1.65 2.68 3.3 2 5 C1.01 5 0.02 5 -1 5 C-0.67 3.35 -0.34 1.7 0 0 Z " fill="#FA660D" transform="translate(20,56)"/>
<path d="M0 0 C1.485 0.99 1.485 0.99 3 2 C3.66 1.67 4.32 1.34 5 1 C5 2.65 5 4.3 5 6 C4.01 6.495 4.01 6.495 3 7 C0 3.375 0 3.375 0 0 Z " fill="#F8CA46" transform="translate(55,47)"/>
<path d="M0 0 C2.84249384 2.84249384 2 5.15984574 2 9 C1.34 9 0.68 9 0 9 C-0.66 7.02 -1.32 5.04 -2 3 C-1.34 3 -0.68 3 0 3 C0 2.01 0 1.02 0 0 Z " fill="#FDE52D" transform="translate(71,44)"/>
<path d="M0 0 C1.98 0 3.96 0 6 0 C6 0.99 6 1.98 6 3 C4.02 3 2.04 3 0 3 C0 2.01 0 1.02 0 0 Z " fill="#F69B3B" transform="translate(124,36)"/>
<path d="M0 0 C2.64 0.33 5.28 0.66 8 1 C8 1.66 8 2.32 8 3 C5.125 3.1875 5.125 3.1875 2 3 C1.34 2.01 0.68 1.02 0 0 Z " fill="#FEC81F" transform="translate(66,31)"/>
<path d="M0 0 C1.98 0.495 1.98 0.495 4 1 C4.33 2.32 4.66 3.64 5 5 C2.03 4.505 2.03 4.505 -1 4 C-0.67 2.68 -0.34 1.36 0 0 Z " fill="#FCAD1D" transform="translate(58,28)"/>
<path d="M0 0 C1.98 0 3.96 0 6 0 C6.33 1.32 6.66 2.64 7 4 C6.01 4 5.02 4 4 4 C4 3.34 4 2.68 4 2 C2.68 1.67 1.36 1.34 0 1 C0 0.67 0 0.34 0 0 Z " fill="#EEB165" transform="translate(149,29)"/>
<path d="M0 0 C2.475 0.495 2.475 0.495 5 1 C4 4 4 4 1.9375 5.1875 C1.298125 5.455625 0.65875 5.72375 0 6 C0 4.02 0 2.04 0 0 Z " fill="#F1B654" transform="translate(64,24)"/>
<path d="M0 0 C-0.99 0 -1.98 0 -3 0 C-3.33 1.32 -3.66 2.64 -4 4 C-5.98 3.34 -7.96 2.68 -10 2 C-3.75 -1.125 -3.75 -1.125 0 0 Z " fill="#F95627" transform="translate(23,19)"/>
<path d="M0 0 C0 0.66 0 1.32 0 2 C-7.75 3.125 -7.75 3.125 -10 2 C-6.49223216 0.39644899 -3.85645121 -0.22036864 0 0 Z " fill="#F2C667" transform="translate(156,20)"/>
<path d="M0 0 C1.32 1.65 2.64 3.3 4 5 C3.34 5 2.68 5 2 5 C2 5.66 2 6.32 2 7 C1.34 7 0.68 7 0 7 C-0.33 7.66 -0.66 8.32 -1 9 C-0.67 6.03 -0.34 3.06 0 0 Z " fill="#D97655" transform="translate(15,7)"/>
<path d="M0 0 C1.485 0.99 1.485 0.99 3 2 C5.62531524 2.16713569 5.62531524 2.16713569 8 2 C7.67 2.99 7.34 3.98 7 5 C4.23723823 4.47731534 1.6739124 3.89130413 -1 3 C-0.67 2.01 -0.34 1.02 0 0 Z " fill="#F5923E" transform="translate(146,39)"/>
<path d="M0 0 C3.29148243 1.13499394 3.9959869 1.99283376 5.75 5.125 C6.1625 6.07375 6.575 7.0225 7 8 C3.70851757 6.86500606 3.0040131 6.00716624 1.25 2.875 C0.8375 1.92625 0.425 0.9775 0 0 Z " fill="#F4AC5B" transform="translate(239,38)"/>
<path d="M0 0 C1.32 0.99 2.64 1.98 4 3 C3.67 4.98 3.34 6.96 3 9 C0.87491756 5.81237635 0.4979837 3.73487777 0 0 Z " fill="#F74205" transform="translate(11,34)"/>
<path d="M0 0 C0 3.3 0 6.6 0 10 C-0.33 10 -0.66 10 -1 10 C-1.12375 8.081875 -1.12375 8.081875 -1.25 6.125 C-1.45869931 3.94666582 -1.45869931 3.94666582 -2 2 C-3.92064793 0.4100567 -3.92064793 0.4100567 -6 0 C-2.25 -1.125 -2.25 -1.125 0 0 Z " fill="#F5BB61" transform="translate(176,25)"/>
<path d="M0 0 C0.33 0.66 0.66 1.32 1 2 C2.32 2 3.64 2 5 2 C5 2.99 5 3.98 5 5 C3.35 4.67 1.7 4.34 0 4 C0 2.68 0 1.36 0 0 Z " fill="#F56A23" transform="translate(40,8)"/>
</svg>
